<svg width="1047" height="1088" viewBox="0 0 1047 1088" fill="none" xmlns="http://www.w3.org/2000/svg">
<path d="M1045.47 770.086C1041.32 795.006 1031.98 817.772 1015.84 837.466C1013.2 840.682 1010.07 843.609 1006.75 846.104C1004.1 848.098 1000.92 849.554 997.783 850.692C992.456 852.641 987.553 851.92 983.833 846.817C971.573 854.977 964.375 855.045 957.48 847.112C953.289 848.902 948.88 850.487 944.106 849.456C939.234 848.417 935.718 845.55 933.733 840.947C931.513 841.539 929.679 842.138 927.792 842.494C919.207 844.079 912.774 838.748 913.547 830.14C913.918 826.06 915.411 822.018 916.836 818.105C921.958 804.045 927.694 790.167 932.354 775.956C935.4 766.658 937.082 756.913 939.196 747.32C939.62 745.325 939.491 743.126 939.211 741.101C938.688 737.37 937.862 736.688 934.013 737.355C930.535 737.969 927.156 739.16 923.731 740.055C916.798 741.883 909.842 743.187 902.682 741.268C893.127 738.713 886.868 730.242 888.171 721.225C889.111 714.756 892.642 710.251 899.128 708.462C901.931 707.696 904.773 707.028 907.652 706.657C915.714 705.61 922.89 702.562 929.49 697.958C931.861 696.298 934.256 694.622 936.574 692.87C942.484 688.365 948.357 683.815 954.388 679.181C954.259 678.286 954.184 677.339 953.979 676.421C951.683 666.441 955.085 658.205 963.814 652.783C969.406 649.317 975.612 647.626 982.045 646.617C983.128 646.451 984.227 646.246 985.591 646.003C985.795 644.494 986.114 643.099 986.189 641.68C987.425 620.371 986.849 599.152 983.742 578.009C976.566 528.981 959.253 483.699 932.967 441.747C930.482 437.78 927.77 433.958 924.913 430.25C921.882 426.337 922.011 422.674 924.701 418.723C926.557 416 928.648 413.634 931.732 412.254C935.006 410.806 938.446 410.335 941.492 412.353C944.704 414.438 947.94 416.728 950.501 419.519C961.7 431.782 970.133 445.918 977.408 460.728C992.153 490.699 1001.91 522.368 1008.57 555.008C1014.59 584.531 1016.7 614.372 1015.73 644.456C1015.69 645.889 1015.73 647.345 1015.73 648.93C1018.54 650.25 1021.36 651.425 1024.01 652.874C1029.8 656.082 1034.57 660.329 1036.91 666.752C1039.45 673.706 1038.26 680.053 1033.68 685.681C1039.19 697.359 1041.83 709.652 1044.11 722.006C1047.04 737.931 1048.16 754.009 1045.47 770.086Z" fill="black"/>
<path d="M956.062 681.779C959.595 685.174 963.226 687.79 968.555 686.013C967.808 685.357 967.158 684.495 966.305 684.045C955.224 678.423 953.956 664.837 963.822 657.178C968.389 653.616 973.748 651.915 979.304 650.709C980.867 650.374 982.467 650.259 984.46 650C984.46 651.221 984.573 652.266 984.445 653.295C984.09 656.034 983.607 658.734 983.214 661.465C982.467 666.904 982.618 667.163 987.812 669.337C993.775 671.832 999.92 672.557 1006.27 671.191C1011.41 670.085 1013.26 668.064 1014.04 662.739C1014.48 659.741 1014.84 656.728 1015.32 653.089C1023.05 656.24 1029.59 660.008 1032.45 668.025C1034.73 674.342 1033 679.925 1027.65 683.968C1025.49 685.601 1023.18 687.027 1020.63 688.751C1024.17 691.932 1026.87 688.21 1030.48 688.507C1032.48 695.533 1034.79 702.749 1036.58 710.095C1040.02 724.146 1042.34 738.403 1041.96 752.904C1041.12 783.188 1031.17 810.322 1013.07 834.396C1010.2 838.218 1006.43 841.445 1002.77 844.572C999.92 846.99 996.44 848.379 992.56 848.47C989.767 848.546 987.479 847.776 985.955 844.755C993.775 836.006 999.64 825.799 1004.2 814.876C1008.71 804.082 1013.11 793.196 1014.02 781.373C1013.63 781.182 1013.24 780.976 1012.87 780.785C1012.23 781.708 1011.37 782.532 1011.02 783.547C1009.4 788.116 1007.87 792.723 1006.4 797.354C1002.52 809.605 997.572 821.352 990.68 832.222C987.011 838.012 982.746 843.275 977.032 847.135C973.25 849.691 969.113 850.965 964.682 849.141C963.044 848.47 961.663 847.12 960.115 846.037C976.081 827.241 983.977 805.188 991.125 782.776C991.631 781.182 991.578 779.405 991.782 777.719C991.427 777.566 991.088 777.437 990.74 777.284C990.106 778.222 989.268 779.084 988.853 780.114C986.528 785.98 984.332 791.9 982.022 797.766C977.145 810.116 972.352 822.534 964.962 833.649C962.576 837.226 959.489 840.43 956.341 843.375C953.412 846.128 949.593 847.006 945.539 846.594C941.1 846.128 938.179 843.802 936.375 839.66C952.167 825.441 959.504 806.668 965.467 787.178C966.992 782.197 969.189 777.192 967.513 771.342C966.917 772.28 966.132 773.165 965.777 774.195C963.399 781.068 961.218 788.024 958.757 794.882C955.239 804.639 951.102 814.143 945.501 822.908C942.353 827.859 938.926 832.634 933.914 835.785C931.529 837.28 928.72 838.523 925.965 838.897C919.987 839.698 916.424 835.762 917.435 829.697C917.933 826.699 919.013 823.755 920.115 820.887C923.761 811.367 927.807 801.984 931.249 792.388C936.239 778.52 940.678 764.446 942.799 749.8C943.32 746.161 943.304 742.339 942.799 738.701C942.18 734.131 939.039 732.018 934.51 732.667C931.83 733.063 929.219 734.04 926.554 734.673C921.866 735.779 917.209 737.167 912.461 737.808C906.52 738.594 900.896 737.335 896.352 732.972C892.064 728.845 890.894 723.467 893.068 718.333C894.412 715.152 896.669 712.94 899.983 712.025C902.776 711.254 905.606 710.522 908.475 710.148C917.692 708.966 925.754 705.144 933.076 699.598C940.602 693.923 948.068 688.004 956.062 681.779ZM972.933 752.736C971.65 751.913 970.865 751.051 970.012 750.997C969.506 750.959 968.298 752.424 968.427 752.736C968.796 753.56 969.634 754.445 970.472 754.705C970.918 754.819 971.756 753.713 972.933 752.736ZM996.606 758.076C995.806 757.367 995.285 756.543 994.726 756.505C994.145 756.467 993.511 757.199 992.915 757.588C993.42 758.229 993.828 759.106 994.5 759.411C994.855 759.579 995.655 758.717 996.606 758.076ZM1018.41 759.67C1017.97 759.937 1017.52 760.197 1017.07 760.479C1016.68 761.188 1016.01 761.898 1015.98 762.653C1015.95 763.065 1017.3 764.003 1017.5 763.866C1018.19 763.439 1018.9 762.691 1019.09 761.936C1019.25 761.242 1018.67 760.418 1018.41 759.67Z" fill="white"/>
<path d="M1010.45 665.341C1002.43 667.73 994.907 667.745 987.592 664.021C993.32 635.414 992.481 607.175 988.695 578.959C982.317 531.46 965.859 487.452 941.171 446.436C937.385 440.141 932.708 434.359 928.249 428.487C927.017 426.859 926.7 425.524 927.282 423.677C929.292 417.323 935.556 413.47 941.005 415.581C942.72 416.252 944.398 417.526 945.554 418.951C949.99 424.454 954.516 429.896 958.453 435.746C974.171 459.115 984.932 484.783 993.373 511.461C1001.1 535.817 1006.78 560.611 1009.57 585.977C1012.11 608.954 1012.71 632.006 1011.12 655.081C1010.9 658.436 1010.69 661.768 1010.45 665.341Z" fill="#3B464E"/>
<mask id="mask0_256_110" style="mask-type:luminance" maskUnits="userSpaceOnUse" x="421" y="642" width="407" height="446">
<path d="M421.689 642.939H827.029V1088H421.689V642.939Z" fill="white"/>
</mask>
<g mask="url(#mask0_256_110)">
<path d="M824.994 1048.86C824.297 1055.27 820.811 1060.35 816.477 1064.81C806.459 1075.15 793.797 1080.54 780.051 1083.5C754.06 1089.09 728.16 1087.64 702.389 1081.79C689.81 1078.93 677.671 1074.8 666.153 1068.94C664.925 1068.31 663.728 1067.58 662.5 1066.95C647.36 1059.14 640.791 1047.07 643.367 1029.88C646.61 1008.16 651.915 987.135 661.682 967.396C662.637 965.445 663.743 963.562 664.887 961.459C657.757 950.315 658.007 942.981 665.774 932.816C671.836 924.875 679.944 920.373 690.507 918.733C690.56 916.372 690.666 913.874 690.681 911.376C690.734 829.628 690.78 747.895 690.833 666.139C690.833 663.763 690.765 661.372 690.916 659.011C691.462 650.607 696.448 644.913 704.132 643.812C711.671 642.734 719.12 647.41 721.492 655.124C722.409 658.1 722.772 661.349 722.772 664.484C722.735 747.622 722.636 830.752 722.545 913.874C722.545 915.241 722.682 916.615 722.788 918.391C726.031 919.196 729.236 919.963 732.449 920.767C739.239 922.46 744.717 926.226 748.968 931.7C753.356 937.348 754.932 943.641 753.03 950.732C752.605 952.319 752.386 954.376 753.03 955.773C755.546 961.353 758.448 966.743 761.191 972.202C766.965 973.515 773.019 974.494 778.824 976.324C813.749 987.378 828.101 1020.13 824.994 1048.86ZM595.499 979.475C591.779 969.279 587.732 959.197 583.807 948.986C597.038 933.841 583.845 911.103 563.158 910.215C563.158 907.489 563.158 905.166 563.158 902.836C563.28 823.653 563.378 744.471 563.484 665.289C563.484 662.7 563.363 660.119 563.143 657.568C562.204 646.963 555.444 642.066 545.131 644.397C534.871 646.72 531.014 651.632 530.984 662.412C530.961 666.777 530.878 671.142 530.878 675.523C530.711 751.729 530.537 827.935 530.347 904.141C530.347 906.639 530.128 909.114 530.075 910.405C523.626 913.791 517.852 916.083 512.919 919.553C500.09 928.587 497.203 940.734 504.046 955.09C501.06 960.397 497.817 965.84 494.93 971.465C493.619 974.047 492.012 975.079 489.148 975.557C467.522 979.148 449.73 989.45 436.537 1007.11C428.171 1018.31 423.511 1030.92 422.647 1045.08C422.162 1052.91 425.254 1058.45 431.005 1062.92C434.112 1065.33 437.424 1067.74 441.03 1069.19C447.972 1071.99 455.026 1074.95 462.316 1076.32C490.853 1081.74 519.019 1079.31 546.738 1070.93C565.204 1065.35 581.731 1056.42 596.015 1043.28C600.66 1038.99 603.251 1033.86 604.001 1027.81C604.449 1024.3 604.449 1020.64 604.017 1017.11C602.463 1004.28 599.94 991.637 595.499 979.475Z" fill="black"/>
</g>
<path d="M667.888 964.578C673.572 966.536 677.839 969.728 684.039 967.549C683.016 966.315 682.448 965.127 681.546 964.647C679.272 963.443 676.778 962.689 674.497 961.538C664.181 956.334 661.999 948.266 668.161 938.43C673.11 930.529 681.326 925.158 690.474 924.282C690.338 926.857 690.338 929.364 690.027 931.817C689.618 934.925 690.717 937.447 693.119 939.116C700.221 944.045 707.839 945.775 716.07 941.965C719.806 940.228 721.989 937.447 722.11 933.188C722.194 930.255 722.383 927.322 722.535 924.053C731.88 924.884 739.558 927.802 745.091 935.063C751.442 943.428 749.669 951.992 740.604 957.127C738.194 958.483 735.579 959.481 733.123 960.731C731.979 961.317 730.955 962.155 729.675 963.001C734.404 965.782 737.254 965.043 749.237 958.087C751.291 962.757 753.284 967.359 755.369 972.098C747.804 973.317 740.96 974.025 734.321 975.603C719.837 979.054 706.899 985.736 695.765 995.777C690.376 1000.64 686.169 1006.36 683.471 1013.13C682.857 1014.66 682.584 1016.36 681.849 1019.1C683.956 1018.22 684.994 1017.96 685.813 1017.38C686.412 1016.95 686.738 1016.11 687.109 1015.4C698.038 995.419 716.183 985.682 737.171 980.288C751.306 976.654 765.457 977.149 779.236 982.216C801.368 990.368 814.594 1006.41 818.899 1029.57C820.096 1035.94 819.755 1042.62 819.99 1049.15C820.18 1054.11 817.648 1057.71 814.086 1060.93C803.156 1070.75 790.4 1076.9 776.075 1079.33C740.225 1085.41 705.55 1081.1 672.223 1066.35C665.682 1063.45 659.558 1059.83 654.366 1054.76C649.038 1049.54 646.787 1043.68 648.166 1035.96C650.812 1021.28 652.524 1006.41 657.406 992.242C660.543 983.092 664.25 974.109 667.888 964.578ZM559.594 1009.22C534.408 980.136 502.62 972.258 469.362 987.572C444.517 999.008 430.078 1018.8 427.107 1046.69C426.425 1053.13 429.032 1056.7 433.951 1059.81C446.26 1067.59 459.714 1071.95 474.076 1073.41C499.816 1076.03 525.055 1073.27 549.642 1065.06C566.575 1059.42 581.786 1050.74 594.83 1038.36C598.522 1034.86 600.075 1030.91 599.545 1025.59C597.188 1001.79 590.935 979.092 581.688 957.142C581.021 955.58 580.164 954.087 579.414 952.594C567.749 957.744 567.749 957.744 563.808 955.893C565.771 954.635 567.325 953.607 568.932 952.632C572.123 950.651 575.42 948.799 578.542 946.704C581.65 944.609 583.477 941.554 584.06 937.843C585.781 926.91 574.904 915.246 563.005 916.038C563.005 919.695 562.815 923.436 563.073 927.147C563.263 929.668 562.429 931.337 560.413 932.64C552.727 937.569 544.587 938.621 536.068 935.405C532.687 934.118 530.755 931.68 530.876 927.611C530.975 924.145 530.224 920.655 529.838 917.135C523.069 918.804 517.711 921.722 512.898 926.148C509.298 929.463 506.804 933.47 505.675 938.255C503.765 946.346 507.471 953.592 515.24 956.426C518.362 957.576 521.758 957.95 525.002 958.849C525.942 959.1 526.73 959.877 528.602 961.028C520.356 964.068 513.8 962.224 507.335 958.704C504.394 964.045 501.665 968.989 498.831 974.147C521.538 976.723 527.753 978.383 538.539 984.616C552.674 992.791 565.294 1006.7 565.514 1014.66C562.308 1014.06 561.299 1011.2 559.594 1009.22Z" fill="white"/>
<path d="M696.713 934.603C696.713 920.388 696.729 906.784 696.713 893.195C696.645 816.709 696.553 740.215 696.469 663.729C696.469 663.133 696.454 662.537 696.469 661.963C696.622 654.72 701.182 649.838 707.622 650.004C713.864 650.163 719.166 656.252 718.959 662.914C718.669 673.153 718.257 683.384 718.241 693.623C718.173 753.547 718.15 813.494 718.257 873.419C718.287 891.746 718.723 910.081 718.998 928.408C719.082 934.309 716.981 936.964 710.938 937.794C705.881 938.481 701.098 937.455 696.713 934.603ZM535.705 793.937C535.705 833.165 535.728 872.415 535.69 911.643C535.69 916.17 535.605 920.727 535.055 925.217C534.696 928.31 536.102 930.023 538.669 930.279C542.779 930.672 547.065 930.913 551.091 930.196C558.753 928.838 558.868 928.189 558.837 920.433C558.577 835.851 558.371 751.269 558.165 666.709C558.165 664.544 558.577 662.371 558.44 660.213C557.958 652.728 552.863 648.865 546.018 650.804C537.378 653.256 535.086 655.889 535.109 665.004C535.124 707.997 535.109 750.967 535.109 793.952C535.315 793.937 535.499 793.937 535.705 793.937Z" fill="#3B464E"/>
<path d="M939.406 359.791L909.266 334.975L920.559 286.153L926.214 259.662L882.919 200.322L892.319 168.595L881.019 114.408L837.724 72.0576H781.244C781.244 72.0576 749.25 89.395 758.643 72.0576C768.066 54.6975 711.578 20.5532 711.578 20.5532H687.108L629.685 42.3537L616.128 53.379L572.255 20H528.945L495.051 20.5532L465.496 53.379L460.769 72.0576H429.163L395.276 87.0611L342.55 103.807L333.134 145.143L325.603 205.096L297.355 237.331V274.665L314.865 327.648L297.355 350.948L271 382.873V441.06L297.355 483.282V534.923L331.25 613.775C331.25 613.775 382.091 640.069 389.622 643.805C397.146 647.571 410.331 643.805 410.331 643.805L451.749 688.861L491.289 702H521.422L581.671 675.729L616.12 649.435L631.182 683.23L690.862 702H721.002L766.189 692.627L796.861 638.174L813.253 643.805L867.864 632.544L907.412 592.656L922.459 527.421V483.282L947.477 454.904L962 405.378L939.406 359.791Z" fill="#EC87C0"/>
<mask id="mask1_256_110" style="mask-type:luminance" maskUnits="userSpaceOnUse" x="249" y="0" width="722" height="723">
<path d="M249.176 0H970.137V722.312H249.176V0Z" fill="white"/>
</mask>
<g mask="url(#mask1_256_110)">
<path d="M970.106 414.792C970.106 380.158 951.957 349.761 924.655 332.657C935.893 316.85 942.493 297.522 942.493 276.644C942.493 245.328 927.626 217.482 904.567 199.831C908.257 189.028 910.303 177.458 910.303 165.379C910.303 107.135 863.156 59.9221 805.028 59.9221C793.275 59.9221 781.969 61.8656 771.406 65.4337C760.631 27.6495 725.911 0.0078125 684.749 0.0078125C653.393 0.0078125 625.803 16.034 609.655 40.3733C593.508 16.034 565.902 0.0078125 534.562 0.0078125C493.4 0.0078125 458.68 27.6495 447.912 65.4337C437.349 61.8656 426.043 59.9221 414.267 59.9221C356.132 59.9221 309.007 107.135 309.007 165.379C309.007 177.458 311.038 189.028 314.759 199.831C291.693 217.482 276.803 245.328 276.803 276.644C276.803 297.522 283.418 316.85 294.648 332.657C267.353 349.761 249.205 380.158 249.205 414.792C249.205 444.878 262.898 471.745 284.388 489.495C281.038 501.308 279.235 513.758 279.235 526.657C279.235 600.76 338.651 660.94 412.358 662.041C431.234 697.882 468.781 722.304 512.033 722.304C553.763 722.304 590.196 699.559 609.655 665.791C629.115 699.559 665.54 722.304 707.277 722.304C750.53 722.304 788.085 697.882 806.968 662.041C880.667 660.94 940.076 600.76 940.076 526.657C940.076 513.758 938.272 501.308 934.923 489.495C956.398 471.745 970.106 444.878 970.106 414.792ZM512.033 692.195C466.477 692.195 429.43 655.072 429.43 609.445C429.43 586.305 439.561 564.745 454.883 549.713C457.71 546.98 459.46 543.161 459.46 538.91C459.46 530.597 452.739 523.878 444.449 523.878C440.357 523.878 436.636 525.51 433.931 528.175C412.002 548.764 399.385 576.96 399.385 609.445C399.385 616.877 400.113 624.15 401.492 631.18C378.297 628.356 356.845 617.933 340.068 601.117C320.215 581.234 309.28 554.777 309.28 526.657C309.28 498.506 320.215 472.057 340.068 452.174C359.929 432.268 386.329 421.313 414.411 421.313C423.361 421.313 432.135 422.414 440.584 424.57C441.827 424.904 443.115 425.102 444.449 425.102C452.739 425.102 459.46 418.36 459.46 410.047C459.46 402.706 454.216 396.602 447.275 395.281C436.743 392.632 425.748 391.219 414.411 391.219C363.998 391.219 320.025 418.884 296.792 459.864C285.903 447.983 279.235 432.154 279.235 414.784C279.235 391.645 290.95 370.479 310.591 358.157L324.375 349.518C328.451 346.83 331.149 342.199 331.149 336.931C331.149 333.735 330.134 330.736 328.421 328.314L319.116 315.195C311.091 303.914 306.848 290.575 306.848 276.644C306.848 257.005 315.395 239.323 328.952 227.138C348.07 253.611 379.153 270.844 414.267 270.844C422.565 270.844 429.43 264.103 429.43 255.79C429.43 247.477 422.61 240.758 414.313 240.758C372.841 240.758 339.052 206.944 339.052 165.372C339.052 123.822 372.795 90.0083 414.275 90.0083C425.088 90.0083 435.363 92.3238 444.669 96.4385C447.821 143.439 486.868 180.555 534.562 180.555C542.859 180.555 549.58 173.837 549.58 165.501C549.58 157.195 542.859 150.469 534.562 150.469C501.44 150.469 474.486 123.465 474.486 90.2664C474.486 57.0979 501.432 30.094 534.562 30.094C567.691 30.094 594.637 57.0979 594.637 90.2664V240.758H594.614C594.394 248.843 587.764 255.372 579.61 255.372C571.32 255.372 564.599 262.114 564.599 270.427C564.599 278.74 571.32 285.481 579.61 285.481C584.884 285.481 589.946 284.555 594.637 282.9V406.274C594.637 431.16 574.42 451.392 549.58 451.392C541.283 451.392 534.562 458.141 534.562 466.454C534.562 474.759 541.283 481.508 549.58 481.508C566.493 481.508 582.088 475.906 594.637 466.454V609.445C594.637 655.072 557.575 692.195 512.033 692.195ZM922.518 459.864C899.286 418.884 855.32 391.227 804.899 391.227C793.563 391.227 782.568 392.639 772.028 395.281C765.094 396.602 759.835 402.713 759.835 410.047C759.835 418.36 766.572 425.102 774.862 425.102C776.211 425.102 777.484 424.904 778.711 424.578C787.16 422.414 795.965 421.313 804.899 421.313C832.974 421.313 859.374 432.268 879.243 452.174C899.104 472.057 910.023 498.506 910.023 526.657C910.023 554.784 899.104 581.234 879.243 601.117C862.451 617.933 841.022 628.364 817.834 631.18C819.198 624.15 819.926 616.877 819.926 609.453C819.926 576.96 807.317 548.764 785.379 528.183C782.674 525.51 778.961 523.878 774.862 523.878C766.572 523.878 759.835 530.604 759.835 538.91C759.835 543.169 761.601 546.98 764.412 549.713C779.749 564.745 789.896 586.305 789.896 609.453C789.896 655.079 752.841 692.195 707.277 692.195C661.736 692.195 624.674 655.079 624.674 609.453V466.454C637.223 475.913 652.825 481.516 669.723 481.516C678.035 481.516 684.749 474.767 684.749 466.454C684.749 458.149 678.035 451.399 669.723 451.399C644.899 451.399 624.674 431.167 624.674 406.282V282.908C629.372 284.563 634.434 285.489 639.685 285.489C647.983 285.489 654.712 278.74 654.712 270.434C654.712 262.121 647.983 255.38 639.685 255.38C631.547 255.38 624.917 248.851 624.697 240.766H624.674V90.274C624.674 57.0979 651.635 30.1016 684.749 30.1016C717.863 30.1016 744.832 57.0979 744.832 90.274C744.832 123.473 717.863 150.477 684.749 150.477C676.452 150.477 669.723 157.195 669.723 165.508C669.723 173.837 676.452 180.563 684.749 180.563C732.45 180.563 771.497 143.439 774.642 96.4461C783.955 92.3238 794.23 90.0083 805.028 90.0083C846.523 90.0083 880.273 123.822 880.273 165.379C880.273 206.944 846.477 240.766 804.983 240.766C796.693 240.766 789.896 247.484 789.896 255.797C789.896 264.103 796.761 270.852 805.028 270.852C840.143 270.852 871.256 253.611 890.352 227.138C903.908 239.331 912.463 257.012 912.463 276.652C912.463 290.583 908.22 303.914 900.187 315.203L890.882 328.314C889.162 330.743 888.154 333.742 888.154 336.931C888.154 342.199 890.859 346.83 894.928 349.518L908.72 358.165C928.346 370.486 940.076 391.645 940.076 414.792C940.076 432.154 933.407 447.983 922.518 459.864Z" fill="#D770AD"/>
</g>
<mask id="mask2_256_110" style="mask-type:luminance" maskUnits="userSpaceOnUse" x="388" y="227" width="475" height="201">
<path d="M388.799 227.031H862.663V427.211H388.799V227.031Z" fill="white"/>
</mask>
<g mask="url(#mask2_256_110)">
<path d="M587.218 326.992C587.218 381.858 542.866 426.217 488.012 426.217C433.15 426.217 388.799 381.858 388.799 326.992C388.799 272.126 433.15 227.768 488.012 227.768C542.866 227.768 587.218 272.126 587.218 326.992ZM763.457 227.768C708.595 227.768 664.244 272.126 664.244 326.992C664.244 381.858 708.595 426.217 763.457 426.217C818.311 426.217 862.663 381.858 862.663 326.992C862.663 272.126 818.311 227.768 763.457 227.768Z" fill="white"/>
</g>
<path d="M669.539 440.444C638.64 449.732 604.826 449.151 574.517 438.7C568.681 436.963 564.601 430.574 566.349 424.186C568.098 418.379 574.517 414.316 580.929 416.061C607.74 425.349 636.308 425.93 663.703 417.797C678.282 413.735 684.111 435.8 669.539 440.444ZM582.677 311.556C582.677 274.977 553.526 245.949 516.798 245.949C480.653 245.949 450.927 275.558 450.927 311.556C450.927 347.554 480.653 377.163 516.798 377.163C553.526 377.163 582.677 347.554 582.677 311.556ZM793.121 245.949C756.976 245.949 727.25 275.558 727.25 311.556C727.25 347.554 756.976 377.163 793.121 377.163C829.266 377.163 859 347.554 859 311.556C859 275.558 829.266 245.949 793.121 245.949ZM527.873 147.833C534.292 148.415 539.538 142.026 539.538 136.219C539.538 129.831 534.292 125.186 527.873 124.613C494.067 121.705 460.253 129.257 429.937 144.926C416.531 151.896 428.188 172.217 441.601 165.247C468.413 151.314 498.147 145.507 527.873 147.833ZM812.363 165.247C825.769 172.217 837.426 152.477 824.021 144.926C794.287 129.257 759.898 121.705 726.667 124.613C720.256 125.186 715.01 129.831 715.01 136.219C715.01 142.026 720.256 148.415 726.667 147.833C756.393 145.507 786.127 151.314 812.363 165.247Z" fill="black"/>
<mask id="mask3_256_110" style="mask-type:luminance" maskUnits="userSpaceOnUse" x="0" y="234" width="304" height="367">
<path d="M0 234.807H303.262V600.183H0V234.807Z" fill="white"/>
</mask>
<g mask="url(#mask3_256_110)">
<path d="M296.35 541.628C290.5 546.115 284.287 550.389 277.687 553.615C244.095 570.014 209.572 584.157 173.495 594.087C166.092 596.129 158.393 597.458 150.732 598.187C134.902 599.675 127.257 594.892 122.096 579.761C117.398 566.028 113.412 552.029 109.525 538.045C104.152 518.769 99.1891 499.372 93.9909 480.028C93.165 476.954 92.1041 473.955 90.9751 470.341C87.603 470.341 84.4583 470.425 81.2909 470.326C77.7598 470.212 74.1604 470.296 70.7278 469.643C56.3834 466.94 52.1551 461.854 51.1245 446.07C32.9459 438.281 19.8898 424.464 10.0844 407.223C3.91623 396.367 0.0289281 384.82 0.339608 372.18C0.642712 359.061 5.5151 348.934 19.6018 344.819C25.7018 321.975 32.7641 315.477 50.6699 316.259C57.8534 303.474 68.697 297.864 84.7614 302.032C84.2765 293.301 83.8597 285.345 83.405 277.389C83.0186 270.617 82.5715 263.845 82.2154 257.073C81.7607 248.532 84.9054 241.761 92.6876 237.942C101.137 233.789 109.267 235.74 115.936 241.745C119.626 245.086 122.983 249.572 124.695 254.203C127.454 261.689 129.583 269.645 130.485 277.571C132.743 297.56 132.47 317.587 128.855 337.478C128.567 339.049 128.583 340.689 128.37 343.46C144.018 347.704 154.392 357.748 157.559 374.237C160.431 389.238 163.091 404.308 153.687 418.224C159.105 439.64 156.203 444.727 129.439 460.624C133.372 479.398 137.229 498.271 141.313 517.099C143.147 525.602 145.117 534.127 147.572 542.471C150.217 551.49 152.202 553.517 161.492 551.9C176.95 549.174 192.424 545.803 207.374 541.089C227.288 534.803 246.649 526.786 266.396 519.931C272.989 517.646 279.975 516.044 286.901 515.254C293.547 514.487 298.722 517.797 301.351 524.273C303.746 530.202 302.147 537.187 296.35 541.628Z" fill="black"/>
</g>
<path d="M99 469.301C105.897 467.594 112.651 465.933 120.502 464C121.797 468.961 123.182 473.439 124.114 478C128.036 497.211 131.791 516.452 135.66 535.678C136.16 538.193 136.879 540.669 137.606 543.139C142.171 558.74 149.296 564.026 165.445 560.764C183.661 557.109 201.749 552.389 219.511 546.907C237.296 541.417 254.589 534.356 272.146 528.051C275.462 526.858 278.847 525.703 282.299 525.121C286.183 524.479 290.234 524.381 291.619 529.471C292.823 533.903 291.15 537.513 286.895 539.703C286.607 539.854 286.312 539.982 286.009 540.111C250.621 554.549 216.21 571.464 179.391 582.217C168.958 585.261 158.177 587.473 147.395 588.727C137.015 589.935 133.366 587.307 130.019 577.445C125.371 563.762 121.297 549.875 117.345 535.965C111.152 514.051 105.254 492.053 99 469.301Z" fill="#3B464E"/>
<path d="M145.258 425.758C146.181 435.099 142.573 441.307 135.517 446.035C121.202 455.65 105.071 459.69 88.3573 461.484C81.1123 462.263 73.5951 462.164 66.3804 461.156C59.3775 460.179 57.8272 457.047 57.6684 448.593C61.0942 446.256 67.1367 449.028 69.103 442.17C67.2123 441.468 65.3822 440.36 63.431 440.116C52.0947 438.711 42.755 433.365 34.6554 425.545C23.062 414.333 14.0323 401.328 10.2661 385.389C8.81413 379.211 8.76875 372.483 9.34351 366.106C9.78214 361.287 12.4744 356.705 17.98 355.513C23.8712 354.245 28.0079 357.323 30.7758 362.096C32.5152 365.098 33.8992 368.572 34.4134 371.994C36.0621 382.762 33.5664 385.343 22.7898 385.046C20.8764 385 18.9631 385.03 17.0573 385.206C16.596 385.259 16.1725 385.977 15.7263 386.382C19.1219 392.591 24.4989 395.692 30.9725 394.745C40.8416 393.309 43.4356 385.695 44.9027 376.133C54.7341 377.271 62.6596 373.216 68.619 365.296C71.0995 370.054 73.2699 374.224 75.6219 378.737C66.4409 388.291 63.0756 399.831 66.7132 412.982C67.4392 413.157 68.1803 413.341 68.9063 413.532C69.4206 411.592 70.0029 409.652 70.4491 407.697C71.7423 402.03 72.37 396.127 74.3968 390.75C77.0059 383.808 80.5451 382.212 88.0548 382.93C94.4451 383.549 100.82 384.412 107.211 385C109.759 385.244 112.444 385.473 114.879 384.9C116.377 384.557 118.018 382.877 118.615 381.395C118.933 380.601 117.42 378.317 116.278 377.813C113.669 376.668 110.803 376.064 107.982 375.53C101.365 374.277 94.5737 373.75 88.1304 371.925C79.0477 369.336 77.9361 363.662 85.0751 357.323C87.6313 355.04 90.9966 352.97 94.2788 352.39C105.812 350.335 117.307 350.694 128.469 354.879C136.198 357.781 141.409 363.188 144.056 371.047C147.308 380.708 148.623 390.682 147.723 400.839C147.028 408.743 142.407 414.639 136.969 419.893C134.92 421.864 132.621 423.559 129.838 425.858C135.472 430.692 139.995 425.316 145.258 425.758ZM87.9413 439.757C97.3416 444.53 107.551 441.239 111.688 431.608C103.505 434.411 96.3585 436.87 87.9413 439.757ZM118.532 276.05C118.26 267.428 116.006 258.676 110.606 251.405C106.84 246.319 100.934 243.929 96.4568 245.456C91.7831 247.037 89.7261 250.527 89.9984 258.118C90.5958 274.63 91.5109 291.141 92.3201 307.652C92.3806 308.935 92.3352 310.371 92.8948 311.448C97.6441 320.49 100.011 329.975 97.0996 340.812C101.637 340.812 104.783 340.682 107.922 340.85C111.416 341.026 114.894 341.469 118.744 341.828C118.759 319.337 119.205 297.678 118.532 276.05ZM62.7731 344.646C61.5631 338.047 57.9709 332.633 52.5636 328.677C44.6607 322.873 37.4612 323.85 31.7892 331.953C29.1045 335.794 27.3954 340.323 24.9678 345.089C35.2226 349.808 40.6979 357.568 44.0935 367.312C59.9069 368.03 64.8301 355.857 62.7731 344.646ZM86.5725 344.142C87.9035 343.126 89.3404 340.995 89.2118 339.498C88.6447 333.091 88.1985 326.538 86.4213 320.413C84.4777 313.693 79.3276 309.164 72.1734 309.294C65.4124 309.409 60.1943 313.044 57.328 320.07C67.8249 328.639 73.096 339.628 72.7254 353.543C77.747 350.205 82.2997 347.364 86.5725 344.142Z" fill="white"/>
</svg>
