<svg width="43" height="43" viewBox="0 0 43 43" fill="none" xmlns="http://www.w3.org/2000/svg">
<path d="M10.833 2.91421C10.4971 3.09058 10.3039 3.26695 10.1191 3.56929L9.86719 3.97242V5.36656C9.86719 6.7355 9.86719 6.7691 10.1023 7.15542C10.6986 8.17164 12.0676 8.348 12.8906 7.51656C13.3777 7.02945 13.4617 6.67671 13.4197 5.1482C13.3945 3.93882 13.3861 3.88003 13.1594 3.5441C12.8318 3.04019 12.3699 2.76304 11.782 2.71265C11.3621 2.67906 11.2361 2.70425 10.833 2.91421Z" fill="white"/>
<path d="M30.7551 2.77986C30.3436 2.90584 29.7641 3.52732 29.6465 3.95564C29.5877 4.174 29.5625 4.79549 29.5793 5.58494C29.6045 6.81111 29.6129 6.8699 29.8397 7.20584C30.1672 7.70974 30.6291 7.98689 31.217 8.03728C31.8889 8.09607 32.5104 7.77693 32.8799 7.18064L33.1319 6.77752V5.38338C33.1319 4.01443 33.1319 3.98084 32.8967 3.59451C32.4852 2.88904 31.553 2.53631 30.7551 2.77986Z" fill="white"/>
<path d="M6.21348 5.50937C5.23926 5.76973 4.41621 6.47519 3.9375 7.43262L3.65195 8.02051L3.62676 11.1867L3.60156 14.3613H21.4986H39.3873V11.3547C39.3873 8.93594 39.3621 8.26406 39.2613 7.92812C39.0766 7.29824 38.5391 6.53398 38.01 6.13086C37.3297 5.61855 36.809 5.44219 35.8096 5.3918L34.9613 5.3498L34.9193 6.22324C34.8689 7.24785 34.6926 7.76855 34.1803 8.44883C33.7687 8.99473 33.0045 9.52383 32.341 9.70859C31.6187 9.92695 30.5773 9.84297 29.8971 9.52383C29.0992 9.1459 28.5365 8.6 28.1586 7.82734C27.8646 7.23105 27.8395 7.13867 27.8059 6.28203L27.7807 5.375H21.4986H15.2166L15.183 6.27363C15.1578 7.07988 15.1242 7.24785 14.8891 7.74336C14.5195 8.52441 13.9736 9.08711 13.2094 9.46504C12.6635 9.73379 12.4871 9.77578 11.8404 9.80937C11.2861 9.83457 10.9754 9.80937 10.6227 9.6918C9.58125 9.36426 8.68262 8.53281 8.29629 7.5418C8.17871 7.23945 8.11152 6.81953 8.07793 6.23164L8.03594 5.375L7.35566 5.3834C6.98613 5.3834 6.46543 5.44219 6.21348 5.50937Z" fill="white"/>
<path d="M3.62617 26.9002L3.65137 37.667L3.93691 38.2549C4.25605 38.8932 4.80195 39.4979 5.37305 39.8338C6.23809 40.3377 5.36465 40.3125 21.498 40.3125C37.6314 40.3125 36.758 40.3377 37.623 39.8338C38.2025 39.4895 38.7484 38.8932 39.0592 38.2465L39.3447 37.667L39.3699 26.8918L39.3867 16.125H21.498H3.60938L3.62617 26.9002ZM12.9988 20.677C13.276 20.7442 13.5027 20.8869 13.7799 21.1641C14.2922 21.6764 14.3846 22.0879 14.351 23.5577C14.3174 24.5319 14.2922 24.6914 14.1074 25.0274C13.9898 25.2289 13.7295 25.5145 13.5363 25.6573L13.1668 25.9092H11.6383H10.1014L9.77383 25.6825C9.59746 25.5565 9.35391 25.3129 9.23633 25.1366C9.03477 24.851 9.02637 24.7586 9.00117 23.4821C8.98438 22.659 9.00957 22.0123 9.05996 21.8192C9.22793 21.2733 9.68984 20.845 10.3281 20.6518C10.6641 20.551 12.5705 20.5678 12.9988 20.677ZM23.3037 20.8701C23.6061 21.0549 23.7824 21.2481 23.9504 21.5756C24.1771 22.0123 24.1855 22.0627 24.1855 23.2973C24.1855 24.6998 24.1016 25.0274 23.6313 25.4641C23.1777 25.884 22.8838 25.9512 21.4561 25.9512C20.0199 25.9512 19.768 25.884 19.2977 25.3885C18.8861 24.9518 18.8105 24.641 18.8105 23.2805C18.8105 22.1047 18.8189 22.0123 19.0289 21.5924C19.2641 21.1221 19.684 20.7778 20.1711 20.6518C20.3223 20.6182 21.0025 20.593 21.6744 20.6014C22.8754 20.6182 22.909 20.6266 23.3037 20.8701ZM33.0543 20.803C33.4826 21.0297 33.8102 21.4076 33.9361 21.8192C33.9865 22.0123 34.0117 22.659 33.9949 23.4821C33.9697 24.7586 33.9613 24.851 33.7598 25.1366C33.6422 25.3129 33.3986 25.5565 33.2223 25.6825C32.9031 25.9008 32.8611 25.9092 31.5426 25.9344C30.0729 25.968 29.7201 25.9092 29.3086 25.5565C28.7963 25.1366 28.6871 24.7754 28.6535 23.4989C28.6115 22.0123 28.7291 21.5756 29.2666 21.0969C29.4766 20.9121 29.7873 20.719 29.9637 20.6686C30.1316 20.6266 30.8203 20.593 31.4922 20.6014C32.5588 20.6182 32.752 20.6434 33.0543 20.803ZM13.2508 30.6123C13.6455 30.7803 13.9143 31.0323 14.1326 31.4522C14.2838 31.7293 14.3174 31.9729 14.3426 32.8799C14.393 34.358 14.2922 34.7612 13.7715 35.2735C13.2592 35.7942 12.8561 35.895 11.3779 35.8446C10.1686 35.811 9.79902 35.685 9.3791 35.1895C9.02637 34.778 8.96758 34.4336 9.00117 32.9471C9.02637 31.595 9.02637 31.595 9.27832 31.2338C9.42109 31.0407 9.69824 30.7887 9.89981 30.6795C10.2441 30.5032 10.3701 30.4864 11.6047 30.4864C12.6209 30.4864 13.0156 30.52 13.2508 30.6123ZM23.1609 30.6459C23.3289 30.7383 23.5725 30.9147 23.6984 31.0491C24.11 31.4858 24.1855 31.7965 24.1855 33.1655C24.1855 34.3664 24.1771 34.4336 23.9504 34.8619C23.7824 35.1895 23.6061 35.3827 23.3037 35.5674L22.9006 35.8194H21.498H20.0955L19.6924 35.5674C19.39 35.3827 19.2137 35.1895 19.0457 34.8619C18.8189 34.4252 18.8105 34.3748 18.8105 33.1403C18.8105 31.7377 18.9029 31.4102 19.3648 30.9819C19.8604 30.5284 20.0115 30.4948 21.4813 30.4864C22.6654 30.4864 22.8922 30.5116 23.1609 30.6459ZM33.2223 30.7551C33.3986 30.8811 33.6422 31.1246 33.7598 31.301C33.9613 31.6034 33.9697 31.6453 33.9697 33.1403V34.6688L33.7178 35.0383C33.575 35.2315 33.2895 35.4918 33.0879 35.6094C32.752 35.7942 32.5924 35.8194 31.6182 35.853C30.14 35.8866 29.7369 35.7942 29.2246 35.2735C28.7039 34.7612 28.6031 34.358 28.6535 32.8799C28.6871 31.7125 28.7963 31.343 29.2414 30.9315C29.6613 30.5368 29.9217 30.4864 31.4586 30.5116C32.8695 30.5284 32.8947 30.5284 33.2223 30.7551Z" fill="white"/>
</svg>
