<svg width="57" height="57" viewBox="0 0 57 57" fill="none" xmlns="http://www.w3.org/2000/svg">
<g clip-path="url(#clip0_739_8)">
<path d="M22.466 0.178127C22.299 0.267189 22.0875 0.478714 22.0096 0.645706C21.9205 0.812698 21.5643 2.1041 21.2191 3.51797L20.5734 6.08965L19.4936 6.55723C18.8924 6.80215 18.358 7.01367 18.2912 7.01367C18.2244 7.01367 17.0777 6.35684 15.7529 5.56641C14.417 4.76485 13.2258 4.11914 13.1145 4.11914C12.992 4.11914 12.7359 4.19707 12.5355 4.28613C12.068 4.50879 4.38633 12.2127 4.2416 12.6135C4.1748 12.7916 4.11914 13.0143 4.11914 13.1256C4.11914 13.2369 4.76484 14.417 5.56641 15.7529C6.35684 17.0777 7.01367 18.2244 7.01367 18.2912C7.01367 18.358 6.80215 18.8924 6.55723 19.4936L6.08965 20.5734L3.51797 21.2191C2.1041 21.5643 0.812695 21.9205 0.645703 22.0096C0 22.3324 0 22.2879 0 28.5C0 34.7121 0 34.6676 0.645703 34.9904C0.812695 35.0795 2.1041 35.4357 3.51797 35.7809L6.08965 36.4266L6.55723 37.5064C6.80215 38.1076 7.01367 38.642 7.01367 38.7088C7.01367 38.7756 6.36797 39.9223 5.56641 41.2471C4.77598 42.583 4.11914 43.7631 4.11914 43.8744C4.11914 43.9857 4.1748 44.2084 4.2416 44.3865C4.38633 44.7873 12.068 52.4912 12.5355 52.7139C12.7359 52.8029 12.992 52.8809 13.1145 52.8809C13.2258 52.8809 14.417 52.2352 15.7529 51.4336C17.0777 50.6432 18.2244 49.9863 18.2912 49.9863C18.358 49.9863 18.8924 50.1979 19.4936 50.4428L20.5734 50.9104L21.2191 53.482C21.5643 54.8959 21.9205 56.1873 22.0096 56.3543C22.3324 57 22.2879 57 28.5 57C34.7121 57 34.6676 57 34.9904 56.3543C35.0795 56.1873 35.4357 54.8959 35.7809 53.482L36.4266 50.9104L37.5064 50.4428C38.1076 50.1979 38.642 49.9863 38.7088 49.9863C38.7756 49.9863 39.9223 50.632 41.2471 51.4336C42.583 52.224 43.7742 52.8809 43.8855 52.8809C44.008 52.8809 44.2641 52.8029 44.4645 52.7139C44.932 52.4912 52.6137 44.7873 52.7584 44.3865C52.8252 44.2084 52.8809 43.9857 52.8809 43.8744C52.8809 43.7631 52.2352 42.583 51.4336 41.2471C50.6432 39.9223 49.9863 38.7756 49.9863 38.7088C49.9863 38.642 50.1978 38.1076 50.4428 37.5064L50.9104 36.4266L53.482 35.7809C54.8959 35.4357 56.1873 35.0795 56.3543 34.9904C57 34.6676 57 34.7121 57 28.5C57 22.2879 57 22.3324 56.3543 22.0096C56.1873 21.9205 54.8959 21.5643 53.482 21.2191L50.9104 20.5734L50.4428 19.4936C50.1978 18.8924 49.9863 18.358 49.9863 18.2912C49.9863 18.2244 50.6432 17.0777 51.4336 15.7529C52.2352 14.417 52.8809 13.2258 52.8809 13.1145C52.8809 12.992 52.8029 12.7359 52.7139 12.5355C52.4912 12.068 44.7873 4.38633 44.3865 4.2416C44.2084 4.1748 43.9857 4.11914 43.8744 4.11914C43.7631 4.11914 42.583 4.76485 41.2471 5.56641C39.9223 6.35684 38.7756 7.01367 38.7088 7.01367C38.642 7.01367 38.1076 6.80215 37.5064 6.55723L36.4266 6.08965L35.7809 3.51797C35.4357 2.1041 35.0795 0.812698 34.9904 0.645706C34.6676 0 34.7121 0 28.4777 0C23.6461 0.0111351 22.7221 0.0334015 22.466 0.178127ZM31.2275 14.5283C34.0107 15.0961 36.3375 16.3318 38.3637 18.2801C40.5123 20.3508 41.8594 22.8111 42.4939 25.8281C42.6275 26.5072 42.6832 27.2643 42.6832 28.5C42.6832 30.4037 42.5273 31.3945 41.9596 33.1201C40.6125 37.1502 37.1391 40.6125 33.0867 41.9707C31.3945 42.5273 30.3926 42.6832 28.5 42.6832C26.6074 42.6832 25.6055 42.5273 23.9133 41.9707C19.8609 40.6125 16.3875 37.1502 15.0404 33.1201C14.4727 31.3945 14.3168 30.4037 14.3168 28.5C14.3168 26.6074 14.4727 25.6055 15.0293 23.9133C16.7104 18.8701 21.2971 15.1184 26.6742 14.3725C27.7318 14.2166 30.1588 14.3057 31.2275 14.5283Z" fill="white"/>
</g>
<defs>
<clipPath id="clip0_739_8">
<rect width="57" height="57" fill="white"/>
</clipPath>
</defs>
</svg>
