<svg width="105" height="105" viewBox="0 0 105 105" fill="none" xmlns="http://www.w3.org/2000/svg">
<g clip-path="url(#clip0_987_2)">
<path d="M84.1378 49.8637C83.3933 48.9437 82.0437 48.8016 81.1242 49.5463L80.3785 50.1496C79.4587 50.8942 79.3168 52.2436 80.0614 53.1634C80.4851 53.6866 81.1039 53.9581 81.7283 53.9581C82.2018 53.9581 82.6787 53.8018 83.0753 53.4807L83.8207 52.8773C84.7403 52.1327 84.8824 50.7835 84.1378 49.8637Z" fill="white"/>
<path d="M78.0041 54.8291C77.2597 53.9091 75.9101 53.767 74.9905 54.5114L59.6695 66.7492C58.7497 67.4939 58.6078 68.8431 59.3525 69.7629C59.7757 70.286 60.3947 70.5575 61.0191 70.5575C61.4927 70.5575 61.9695 70.4013 62.3661 70.0803L77.6871 57.8425C78.6066 57.0981 78.7488 55.749 78.0041 54.8291Z" fill="white"/>
<path d="M87.2991 87.3592H17.6429V38.8575L50.8131 65.578C51.7809 66.3575 53.1613 66.3575 54.129 65.578L87.2991 38.8575V87.3592ZM16.6578 31.2767L16.6577 31.2766C15.8653 30.6387 14.7767 30.5112 13.8589 30.9511C12.9409 31.3904 12.357 32.3174 12.357 33.3348V87.3485C8.14628 87.1343 4.78572 83.6403 4.78572 79.3773V25.6229C4.78572 21.5177 7.90316 18.1269 11.8948 17.691L50.8097 49.1469C50.8097 49.1469 50.8098 49.147 50.8098 49.147C51.2942 49.5388 51.8832 49.7345 52.4711 49.7345C53.0592 49.7345 53.6479 49.5388 54.1324 49.147C54.1324 49.147 54.1324 49.1469 54.1325 49.1469L93.0537 17.6855C97.07 18.0981 100.214 21.5001 100.214 25.6227V79.3771C100.214 83.6597 96.823 87.1659 92.5852 87.3512V33.3348C92.5852 32.3173 92.0011 31.3903 91.0831 30.9509C90.1645 30.5114 89.0763 30.6386 88.2843 31.2768L52.4711 60.1263L16.6578 31.2767ZM92.2322 12.3553H12.7678C5.45149 12.3553 -0.5 18.3068 -0.5 25.6229V79.3773C-0.5 86.6936 5.4515 92.6449 12.7678 92.6449H92.2322C99.5487 92.6449 105.5 86.6936 105.5 79.3773V25.6229C105.5 18.3068 99.5487 12.3553 92.2322 12.3553ZM52.4711 43.6929L20.2413 17.6408H84.7008L52.4711 43.6929Z" fill="white" stroke="white"/>
</g>
<defs>
<clipPath id="clip0_987_2">
<rect width="105" height="105" fill="white"/>
</clipPath>
</defs>
</svg>
