<svg width="74" height="77" viewBox="0 0 74 77" fill="none" xmlns="http://www.w3.org/2000/svg">
<path d="M37 28.952C35.1852 28.952 33.4111 29.512 31.9021 30.5611C30.3931 31.6103 29.217 33.1015 28.5225 34.8461C27.828 36.5908 27.6463 38.5106 28.0003 40.3627C28.3544 42.2149 29.2283 43.9161 30.5116 45.2515C31.7949 46.5868 33.4299 47.4961 35.2099 47.8645C36.9898 48.233 38.8348 48.0439 40.5115 47.3212C42.1882 46.5985 43.6213 45.3747 44.6296 43.8046C45.6378 42.2344 46.176 40.3884 46.176 38.5C46.176 37.2461 45.9387 36.0046 45.4775 34.8461C45.0164 33.6877 44.3405 32.6352 43.4884 31.7485C42.6363 30.8619 41.6248 30.1586 40.5115 29.6788C39.3982 29.199 38.205 28.952 37 28.952ZM73.741 19.5195C73.7215 16.5464 73.1954 13.6004 72.187 10.8185C71.4443 8.78285 70.2953 6.93421 68.8156 5.39456C67.336 3.85492 65.5593 2.65926 63.603 1.8865C60.9295 0.837236 58.0983 0.289754 55.241 0.2695C50.468 -2.50339e-07 49.062 0 37 0C24.938 0 23.532 -2.50339e-07 18.759 0.2695C15.9017 0.289754 13.0705 0.837236 10.397 1.8865C8.44066 2.65926 6.66405 3.85492 5.18439 5.39456C3.70472 6.93421 2.55566 8.78285 1.813 10.8185C0.804616 13.6004 0.278465 16.5464 0.259 19.5195C-2.40586e-07 24.486 0 25.949 0 38.5C0 51.051 -2.40586e-07 52.514 0.259 57.4805C0.298826 60.4641 0.824265 63.4191 1.813 66.22C2.55236 68.2463 3.70048 70.0843 5.18 71.61C6.65332 73.1589 8.43374 74.3545 10.397 75.1135C13.0705 76.1628 15.9017 76.7102 18.759 76.7305C23.532 77 24.938 77 37 77C49.062 77 50.468 77 55.241 76.7305C58.0983 76.7102 60.9295 76.1628 63.603 75.1135C65.5663 74.3545 67.3467 73.1589 68.82 71.61C70.2995 70.0843 71.4476 68.2463 72.187 66.22C73.1944 63.4244 73.7205 60.466 73.741 57.4805C74 52.514 74 51.051 74 38.5C74 25.949 74 24.486 73.741 19.5195ZM64.343 50.3195C64.2243 52.6953 63.737 55.0356 62.9 57.2495C62.1817 59.0963 61.1139 60.7739 59.76 62.1827C58.4061 63.5915 56.7938 64.7026 55.019 65.45C52.8712 66.2723 50.6096 66.7274 48.322 66.7975H25.678C23.3904 66.7274 21.1288 66.2723 18.981 65.45C17.1462 64.7405 15.4892 63.6086 14.134 62.139C12.7934 60.7578 11.758 59.0893 11.1 57.2495C10.3066 55.0169 9.88124 52.661 9.842 50.281V26.719C9.88124 24.339 10.3066 21.9831 11.1 19.7505C11.7818 17.8413 12.8696 16.1172 14.282 14.707C15.6152 13.3196 17.2171 12.2434 18.981 11.55C21.1288 10.7277 23.3904 10.2726 25.678 10.2025H48.322C50.6096 10.2726 52.8712 10.7277 55.019 11.55C56.8538 12.2595 58.5108 13.3914 59.866 14.861C61.2066 16.2422 62.242 17.9107 62.9 19.7505C63.6903 21.9854 64.1276 24.3387 64.195 26.719V38.5C64.195 46.431 64.454 47.2395 64.343 50.281V50.3195ZM58.423 21.6755C57.9825 20.4319 57.2879 19.3025 56.3872 18.3653C55.4865 17.4281 54.4012 16.7054 53.206 16.247C51.5649 15.6551 49.8366 15.3684 48.1 15.4H25.9C24.1546 15.4178 22.426 15.7566 20.794 16.401C19.6171 16.8386 18.5433 17.5318 17.6438 18.4346C16.7443 19.3374 16.0397 20.429 15.577 21.637C15.0397 23.3517 14.7772 25.1466 14.8 26.95V50.05C14.8367 51.8641 15.1617 53.6594 15.762 55.363C16.2025 56.6066 16.8971 57.736 17.7978 58.6732C18.6985 59.6104 19.7838 60.3331 20.979 60.7915C22.5577 61.3956 24.2189 61.7335 25.9 61.7925H48.1C49.8454 61.7747 51.574 61.4359 53.206 60.7915C54.4012 60.3331 55.4865 59.6104 56.3872 58.6732C57.2879 57.736 57.9825 56.6066 58.423 55.363C59.0423 53.6649 59.3679 51.8662 59.385 50.05V26.95C59.3861 25.132 59.0598 23.3299 58.423 21.637V21.6755ZM37 53.207C35.1456 53.207 33.3095 52.8263 31.5968 52.0868C29.884 51.3472 28.3283 50.2633 27.0188 48.8971C25.7093 47.5309 24.6717 45.9093 23.9654 44.1252C23.2592 42.3411 22.8981 40.4295 22.903 38.5C22.903 35.5896 23.7329 32.7446 25.2876 30.3252C26.8423 27.9059 29.0519 26.0209 31.6367 24.9089C34.2215 23.7969 37.0653 23.5079 39.808 24.0785C42.5508 24.6491 45.0691 26.0536 47.0443 28.1143C49.0195 30.1749 50.3627 32.7991 50.9039 35.6545C51.4451 38.5099 51.1599 41.4682 50.0845 44.1549C49.009 46.8415 47.1917 49.1358 44.8625 50.7472C42.5333 52.3586 39.797 53.2146 37 53.207ZM51.8 26.6805C50.9821 26.5904 50.2252 26.1885 49.675 25.5523C49.1249 24.9161 48.8205 24.0906 48.8205 23.2347C48.8205 22.3789 49.1249 21.5534 49.675 20.9172C50.2252 20.281 50.9821 19.8791 51.8 19.789C52.6179 19.8791 53.3748 20.281 53.925 20.9172C54.4751 21.5534 54.7795 22.3789 54.7795 23.2347C54.7795 24.0906 54.4751 24.9161 53.925 25.5523C53.3748 26.1885 52.6179 26.5904 51.8 26.6805Z" fill="white"/>
</svg>
