<svg width="237" height="48" viewBox="0 0 237 48" fill="none" xmlns="http://www.w3.org/2000/svg">
<path d="M228.307 28.5421C226.504 28.5421 224.945 28.247 223.632 27.6568C222.344 27.0666 221.288 26.2968 220.463 25.3473C219.639 24.3722 219.021 23.2945 218.609 22.1141C218.222 20.9337 218.029 19.7533 218.029 18.573C218.029 16.6484 218.467 14.942 219.343 13.4537C220.219 11.9654 221.429 10.7978 222.975 9.95102C224.52 9.07856 226.298 8.64233 228.307 8.64233C229.801 8.64233 231.089 8.88611 232.17 9.37366C233.278 9.83555 234.18 10.4514 234.875 11.2212C235.596 11.9654 236.124 12.7737 236.459 13.6461C236.82 14.5186 237 15.3526 237 16.148C237 17.5594 236.652 18.6114 235.957 19.3043C235.287 19.9715 234.424 20.305 233.368 20.305H224.173C224.224 20.9722 224.456 21.5367 224.868 21.9986C225.306 22.4605 225.847 22.8198 226.491 23.0764C227.135 23.333 227.817 23.4613 228.539 23.4613C229.157 23.4613 229.698 23.4356 230.161 23.3843C230.625 23.3073 231.024 23.2175 231.359 23.1149C231.694 22.9866 232.003 22.8711 232.286 22.7684C232.57 22.6401 232.814 22.5375 233.021 22.4605C233.252 22.3835 233.471 22.3322 233.677 22.3066C234.064 22.2809 234.411 22.3964 234.721 22.653C235.055 22.8839 235.352 23.2432 235.609 23.7307C235.79 24.013 235.905 24.2824 235.957 24.539C236.034 24.7956 236.073 25.0522 236.073 25.3088C236.073 25.9247 235.751 26.4764 235.107 26.9639C234.489 27.4515 233.6 27.8364 232.441 28.1187C231.308 28.4009 229.93 28.5421 228.307 28.5421ZM224.173 17.1488H230.277C230.689 17.1488 230.986 17.0846 231.166 16.9563C231.372 16.8024 231.475 16.5201 231.475 16.1095C231.475 15.6477 231.333 15.2499 231.05 14.9163C230.767 14.5571 230.38 14.2876 229.891 14.108C229.427 13.9027 228.886 13.8001 228.268 13.8001C227.47 13.8001 226.761 13.9541 226.143 14.262C225.525 14.5699 225.036 14.9805 224.675 15.4937C224.34 16.0069 224.173 16.5586 224.173 17.1488Z" fill="white"/>
<path d="M212.769 28.1957C211.455 28.1957 210.322 28.0546 209.369 27.7723C208.441 27.49 207.669 27.0538 207.05 26.4636C206.432 25.8734 205.969 25.1293 205.659 24.2311C205.376 23.3074 205.234 22.2168 205.234 20.9594V5.33217C205.234 4.81896 205.273 4.35707 205.35 3.9465C205.453 3.53593 205.711 3.20234 206.123 2.94574C206.535 2.66347 207.205 2.52234 208.132 2.52234C209.06 2.52234 209.729 2.66347 210.141 2.94574C210.554 3.228 210.798 3.58725 210.876 4.02348C210.979 4.45971 211.03 4.93443 211.03 5.44764V20.7285C211.03 21.139 211.056 21.4855 211.107 21.7677C211.185 22.0243 211.288 22.2168 211.416 22.3451C211.545 22.4734 211.726 22.5632 211.957 22.6145C212.189 22.6658 212.473 22.6915 212.807 22.6915C213.374 22.6915 213.876 22.7428 214.314 22.8455C214.752 22.9481 215.087 23.1791 215.319 23.5383C215.576 23.8975 215.705 24.5006 215.705 25.3474C215.705 26.2711 215.563 26.9383 215.28 27.3489C214.997 27.7595 214.623 28.0032 214.16 28.0802C213.722 28.1572 213.258 28.1957 212.769 28.1957ZM204.037 9.25822H208.287L213.619 9.10426C214.108 9.10426 214.572 9.15558 215.01 9.25822C215.448 9.33521 215.808 9.57898 216.092 9.98955C216.375 10.4001 216.517 11.0801 216.517 12.0296C216.517 12.902 216.375 13.5435 216.092 13.9541C215.834 14.3647 215.486 14.6341 215.048 14.7624C214.61 14.865 214.134 14.9164 213.619 14.9164L208.557 14.8009H203.882C203.135 14.7752 202.607 14.5571 202.298 14.1466C202.015 13.7103 201.873 12.9918 201.873 11.9911C201.873 11.0673 202.053 10.3873 202.414 9.95106C202.775 9.48917 203.316 9.25822 204.037 9.25822Z" fill="white"/>
<path d="M184.347 28.1572C183.394 28.1572 182.711 28.0289 182.299 27.7722C181.913 27.49 181.668 27.1307 181.565 26.6945C181.488 26.2326 181.449 25.7579 181.449 25.2703V11.7216C181.449 11.234 181.501 10.785 181.604 10.3744C181.707 9.93819 181.952 9.59177 182.338 9.33516C182.75 9.07856 183.433 8.95026 184.386 8.95026C185.21 8.95026 185.815 9.06573 186.202 9.29667C186.588 9.50196 186.833 9.75856 186.936 10.0665C187.064 10.3744 187.129 10.6695 187.129 10.9518C187.129 11.2084 187.155 11.388 187.206 11.4906L186.974 12.222C187.026 11.8371 187.219 11.4522 187.554 11.0672C187.915 10.6567 188.352 10.2974 188.868 9.98951C189.408 9.65592 189.975 9.39931 190.568 9.21969C191.186 9.04007 191.791 8.95026 192.384 8.95026C193.62 8.95026 194.715 9.1812 195.668 9.64309C196.647 10.0793 197.471 10.7208 198.14 11.5676C198.81 12.4144 199.312 13.4152 199.647 14.5699C200.008 15.699 200.188 16.9435 200.188 18.3035V25.3088C200.188 25.7964 200.137 26.2711 200.034 26.733C199.956 27.1692 199.712 27.5156 199.3 27.7722C198.913 28.0289 198.243 28.1572 197.29 28.1572C196.312 28.1572 195.616 28.0289 195.204 27.7722C194.818 27.49 194.573 27.1307 194.47 26.6945C194.367 26.2326 194.315 25.7579 194.315 25.2703V18.3035C194.315 17.5337 194.187 16.8794 193.929 16.3405C193.671 15.8016 193.285 15.391 192.77 15.1088C192.255 14.8009 191.624 14.6469 190.877 14.6469C190.13 14.6469 189.486 14.8009 188.945 15.1088C188.404 15.4167 187.979 15.8401 187.67 16.379C187.386 16.9178 187.245 17.5594 187.245 18.3035V25.3088C187.245 25.7964 187.193 26.2711 187.09 26.733C187.013 27.1692 186.768 27.5156 186.356 27.7722C185.97 28.0289 185.3 28.1572 184.347 28.1572Z" fill="white"/>
<path d="M170.276 28.5421C168.472 28.5421 166.914 28.247 165.6 27.6568C164.313 27.0666 163.256 26.2968 162.432 25.3473C161.608 24.3722 160.99 23.2945 160.578 22.1141C160.191 20.9337 159.998 19.7533 159.998 18.573C159.998 16.6484 160.436 14.942 161.312 13.4537C162.187 11.9654 163.398 10.7978 164.944 9.95102C166.489 9.07856 168.266 8.64233 170.276 8.64233C171.77 8.64233 173.057 8.88611 174.139 9.37366C175.247 9.83555 176.148 10.4514 176.844 11.2212C177.565 11.9654 178.093 12.7737 178.428 13.6461C178.789 14.5186 178.969 15.3526 178.969 16.148C178.969 17.5594 178.621 18.6114 177.926 19.3043C177.256 19.9715 176.393 20.305 175.337 20.305H166.141C166.193 20.9722 166.425 21.5367 166.837 21.9986C167.275 22.4605 167.816 22.8198 168.46 23.0764C169.104 23.333 169.786 23.4613 170.507 23.4613C171.126 23.4613 171.666 23.4356 172.13 23.3843C172.594 23.3073 172.993 23.2175 173.328 23.1149C173.663 22.9866 173.972 22.8711 174.255 22.7684C174.538 22.6401 174.783 22.5375 174.989 22.4605C175.221 22.3835 175.44 22.3322 175.646 22.3066C176.032 22.2809 176.38 22.3964 176.689 22.653C177.024 22.8839 177.32 23.2432 177.578 23.7307C177.758 24.013 177.874 24.2824 177.926 24.539C178.003 24.7956 178.042 25.0522 178.042 25.3088C178.042 25.9247 177.72 26.4764 177.076 26.9639C176.457 27.4515 175.569 27.8364 174.41 28.1187C173.276 28.4009 171.898 28.5421 170.276 28.5421ZM166.141 17.1488H172.246C172.658 17.1488 172.954 17.0846 173.135 16.9563C173.341 16.8024 173.444 16.5201 173.444 16.1095C173.444 15.6477 173.302 15.2499 173.019 14.9163C172.735 14.5571 172.349 14.2876 171.86 14.108C171.396 13.9027 170.855 13.8001 170.237 13.8001C169.438 13.8001 168.73 13.9541 168.112 14.262C167.494 14.5699 167.004 14.9805 166.644 15.4937C166.309 16.0069 166.141 16.5586 166.141 17.1488Z" fill="white"/>
<path d="M132.5 28.1957C131.572 28.1957 130.903 28.0545 130.491 27.7723C130.079 27.49 129.834 27.1308 129.757 26.6945C129.679 26.2583 129.641 25.7836 129.641 25.2704V11.7986C129.641 11.2854 129.679 10.8235 129.757 10.4129C129.86 9.97671 130.117 9.6303 130.529 9.37369C130.941 9.09143 131.624 8.95029 132.577 8.95029C133.53 8.95029 134.226 9.14275 134.663 9.52766C135.101 9.8869 135.32 10.4899 135.32 11.3367L134.818 11.7601C134.87 11.6318 135.024 11.4137 135.282 11.1058C135.539 10.7979 135.874 10.4771 136.286 10.1435C136.698 9.80992 137.175 9.52766 137.716 9.29671C138.282 9.04011 138.888 8.9118 139.532 8.9118C140.382 8.9118 141.142 9.04011 141.811 9.29671C142.507 9.52766 143.125 9.8869 143.666 10.3745C144.233 10.8363 144.722 11.4265 145.134 12.145C145.495 11.6318 145.933 11.1314 146.448 10.6439C146.963 10.1563 147.568 9.74577 148.264 9.41218C148.985 9.0786 149.783 8.9118 150.659 8.9118C152.153 8.9118 153.415 9.29671 154.446 10.0665C155.502 10.8107 156.3 11.8884 156.841 13.2998C157.382 14.7111 157.653 16.4175 157.653 18.419V25.3089C157.653 25.7964 157.601 26.2711 157.498 26.733C157.421 27.1693 157.176 27.5285 156.764 27.8108C156.352 28.0674 155.669 28.1957 154.716 28.1957C153.763 28.1957 153.08 28.0545 152.668 27.7723C152.282 27.49 152.037 27.1308 151.934 26.6945C151.857 26.2327 151.818 25.7579 151.818 25.2704V18.3805C151.818 17.5851 151.728 16.9179 151.548 16.379C151.368 15.8401 151.084 15.4296 150.698 15.1473C150.337 14.8394 149.874 14.6854 149.307 14.6854C148.714 14.6854 148.212 14.8266 147.8 15.1088C147.388 15.3654 147.079 15.776 146.873 16.3405C146.667 16.8794 146.564 17.5722 146.564 18.419V25.3089C146.564 25.8221 146.499 26.3096 146.371 26.7715C146.242 27.2078 145.958 27.567 145.52 27.8493C145.108 28.1059 144.439 28.2213 143.511 28.1957C142.584 28.17 141.927 28.0161 141.541 27.7338C141.154 27.4515 140.923 27.0923 140.845 26.656C140.768 26.1942 140.729 25.7323 140.729 25.2704V18.3805C140.729 17.5851 140.639 16.9179 140.459 16.379C140.279 15.8145 140.008 15.3911 139.648 15.1088C139.287 14.8266 138.811 14.6854 138.218 14.6854C137.574 14.6854 137.046 14.8522 136.634 15.1858C136.222 15.5194 135.913 15.9684 135.707 16.533C135.526 17.0718 135.436 17.6877 135.436 18.3805V25.3089C135.436 25.8221 135.385 26.2968 135.282 26.733C135.204 27.1693 134.96 27.5285 134.548 27.8108C134.135 28.0674 133.453 28.1957 132.5 28.1957Z" fill="white"/>
<path d="M123.674 28.1572C122.721 28.1572 122.013 27.9904 121.549 27.6568C121.111 27.3232 120.892 26.9126 120.892 26.4251L121.279 25.7707C121.124 26.0273 120.828 26.3481 120.39 26.733C119.952 27.0922 119.386 27.4258 118.69 27.7338C117.995 28.016 117.132 28.1572 116.101 28.1572C114.917 28.1572 113.783 27.9006 112.701 27.3873C111.645 26.8741 110.705 26.1685 109.881 25.2703C109.057 24.3466 108.4 23.3073 107.91 22.1526C107.447 20.9979 107.215 19.779 107.215 18.496C107.215 17.2386 107.447 16.0454 107.91 14.9163C108.4 13.7616 109.057 12.748 109.881 11.8756C110.731 10.9774 111.684 10.2718 112.74 9.75856C113.796 9.24535 114.917 8.98875 116.101 8.98875C117.054 8.98875 117.866 9.12988 118.536 9.41214C119.205 9.66875 119.759 9.97668 120.197 10.3359C120.661 10.6952 121.008 11.0416 121.24 11.3752L120.931 10.8363C120.905 10.2205 121.111 9.75856 121.549 9.45064C122.013 9.11705 122.734 8.95026 123.713 8.95026C124.64 8.95026 125.297 9.09139 125.683 9.37365C126.096 9.65592 126.34 10.028 126.418 10.4899C126.521 10.9518 126.572 11.4393 126.572 11.9525V25.2319C126.572 25.7194 126.521 26.1941 126.418 26.656C126.34 27.1179 126.096 27.49 125.683 27.7722C125.297 28.0289 124.627 28.1572 123.674 28.1572ZM116.951 22.422C117.621 22.422 118.226 22.2552 118.767 21.9216C119.334 21.5624 119.772 21.0877 120.081 20.4975C120.416 19.9073 120.583 19.253 120.583 18.5345C120.583 17.7903 120.416 17.136 120.081 16.5714C119.746 15.9812 119.295 15.5193 118.729 15.1858C118.162 14.8265 117.544 14.6469 116.874 14.6469C116.127 14.6469 115.457 14.8265 114.865 15.1858C114.298 15.545 113.835 16.0197 113.474 16.6099C113.139 17.2001 112.972 17.8673 112.972 18.6114C112.972 19.3043 113.139 19.9458 113.474 20.536C113.835 21.1005 114.311 21.5624 114.904 21.9216C115.522 22.2552 116.204 22.422 116.951 22.422Z" fill="white"/>
<path d="M95.5295 36.0863C95.0659 36.0863 94.6151 36.0349 94.1772 35.9323C93.7393 35.8553 93.3916 35.6115 93.134 35.201C92.8507 34.8161 92.709 34.1617 92.709 33.2379C92.709 32.3655 92.8507 31.724 93.134 31.3134C93.3916 30.9285 93.7522 30.6847 94.2158 30.5821C94.6537 30.4794 95.1174 30.4281 95.6068 30.4281C95.9416 30.4281 96.3022 30.3896 96.6886 30.3126C97.075 30.2357 97.4356 30.0689 97.7704 29.8123C98.1053 29.5813 98.3758 29.2349 98.5818 28.773C98.8137 28.3111 98.9296 27.7081 98.9296 26.9639V11.5291C98.9296 11.0929 98.9682 10.6695 99.0455 10.2589C99.1485 9.84838 99.4061 9.51479 99.8182 9.25818C100.23 9.00158 100.887 8.87328 101.789 8.87328C102.716 8.87328 103.373 9.01441 103.759 9.29667C104.171 9.57894 104.416 9.93819 104.493 10.3744C104.571 10.8106 104.609 11.2725 104.609 11.7601V27.1179C104.609 28.6062 104.339 29.9021 103.798 31.0055C103.283 32.1345 102.587 33.0711 101.711 33.8153C100.836 34.5851 99.8569 35.1496 98.775 35.5089C97.7189 35.8938 96.6371 36.0863 95.5295 36.0863ZM101.711 6.14043C100.604 6.14043 99.844 5.93515 99.4318 5.52458C99.0197 5.08835 98.8137 4.29287 98.8137 3.13815C98.8137 2.03475 99.0197 1.27776 99.4318 0.867194C99.8697 0.456626 100.655 0.251343 101.789 0.251343C102.922 0.251343 103.682 0.456626 104.068 0.867194C104.48 1.27776 104.686 2.04758 104.686 3.17664C104.686 4.3057 104.48 5.08835 104.068 5.52458C103.656 5.93515 102.871 6.14043 101.711 6.14043Z" fill="white"/>
<path d="M87.6095 28.5421C85.8064 28.5421 84.2481 28.247 82.9344 27.6568C81.6465 27.0666 80.5904 26.2968 79.7662 25.3473C78.9419 24.3722 78.3237 23.2945 77.9116 22.1141C77.5252 20.9337 77.332 19.7533 77.332 18.573C77.332 16.6484 77.7699 14.942 78.6457 13.4537C79.5215 11.9654 80.7321 10.7978 82.2776 9.95102C83.8231 9.07856 85.6004 8.64233 87.6095 8.64233C89.1035 8.64233 90.3914 8.88611 91.4732 9.37366C92.5808 9.83555 93.4823 10.4514 94.1778 11.2212C94.899 11.9654 95.4271 12.7737 95.7619 13.6461C96.1226 14.5186 96.3029 15.3526 96.3029 16.148C96.3029 17.5594 95.9551 18.6114 95.2597 19.3043C94.5899 19.9715 93.727 20.305 92.671 20.305H83.4753C83.5269 20.9722 83.7587 21.5367 84.1708 21.9986C84.6087 22.4605 85.1496 22.8198 85.7936 23.0764C86.4375 23.333 87.1201 23.4613 87.8413 23.4613C88.4595 23.4613 89.0004 23.4356 89.4641 23.3843C89.9277 23.3073 90.327 23.2175 90.6618 23.1149C90.9967 22.9866 91.3058 22.8711 91.5891 22.7684C91.8725 22.6401 92.1172 22.5375 92.3232 22.4605C92.5551 22.3835 92.774 22.3322 92.9801 22.3066C93.3664 22.2809 93.7142 22.3964 94.0233 22.653C94.3581 22.8839 94.6543 23.2432 94.9119 23.7307C95.0922 24.013 95.2081 24.2824 95.2597 24.539C95.3369 24.7956 95.3756 25.0522 95.3756 25.3088C95.3756 25.9247 95.0536 26.4764 94.4096 26.9639C93.7914 27.4515 92.9028 27.8364 91.7437 28.1187C90.6103 28.4009 89.2323 28.5421 87.6095 28.5421ZM83.4753 17.1488H89.58C89.9921 17.1488 90.2883 17.0846 90.4687 16.9563C90.6747 16.8024 90.7778 16.5201 90.7778 16.1095C90.7778 15.6477 90.6361 15.2499 90.3527 14.9163C90.0694 14.5571 89.683 14.2876 89.1936 14.108C88.73 13.9027 88.1891 13.8001 87.5709 13.8001C86.7724 13.8001 86.064 13.9541 85.4458 14.262C84.8276 14.5699 84.3382 14.9805 83.9776 15.4937C83.6428 16.0069 83.4753 16.5586 83.4753 17.1488Z" fill="white"/>
<path d="M59.1517 28.1572C58.1986 28.1572 57.5161 28.0289 57.1039 27.7722C56.7175 27.49 56.4728 27.1307 56.3698 26.6945C56.2925 26.2326 56.2539 25.7579 56.2539 25.2703V11.7216C56.2539 11.234 56.3054 10.785 56.4085 10.3744C56.5115 9.93819 56.7562 9.59177 57.1426 9.33516C57.5547 9.07856 58.2373 8.95026 59.1903 8.95026C60.0146 8.95026 60.6199 9.06573 61.0063 9.29667C61.3926 9.50196 61.6373 9.75856 61.7404 10.0665C61.8692 10.3744 61.9336 10.6695 61.9336 10.9518C61.9336 11.2084 61.9593 11.388 62.0108 11.4906L61.779 12.222C61.8305 11.8371 62.0237 11.4522 62.3586 11.0672C62.7192 10.6567 63.1571 10.2974 63.6722 9.98951C64.2132 9.65592 64.7798 9.39931 65.3723 9.21969C65.9905 9.04007 66.5958 8.95026 67.1882 8.95026C68.4246 8.95026 69.5193 9.1812 70.4724 9.64309C71.4512 10.0793 72.2754 10.7208 72.9451 11.5676C73.6149 12.4144 74.1171 13.4152 74.452 14.5699C74.8126 15.699 74.9929 16.9435 74.9929 18.3035V25.3088C74.9929 25.7964 74.9414 26.2711 74.8384 26.733C74.7611 27.1692 74.5164 27.5156 74.1043 27.7722C73.7179 28.0289 73.0482 28.1572 72.0951 28.1572C71.1163 28.1572 70.4209 28.0289 70.0087 27.7722C69.6224 27.49 69.3777 27.1307 69.2746 26.6945C69.1716 26.2326 69.1201 25.7579 69.1201 25.2703V18.3035C69.1201 17.5337 68.9913 16.8794 68.7337 16.3405C68.4761 15.8016 68.0897 15.391 67.5746 15.1088C67.0594 14.8009 66.4284 14.6469 65.6814 14.6469C64.9344 14.6469 64.2904 14.8009 63.7495 15.1088C63.2086 15.4167 62.7836 15.8401 62.4745 16.379C62.1911 16.9178 62.0495 17.5594 62.0495 18.3035V25.3088C62.0495 25.7964 61.998 26.2711 61.8949 26.733C61.8177 27.1692 61.573 27.5156 61.1608 27.7722C60.7744 28.0289 60.1047 28.1572 59.1517 28.1572Z" fill="white"/>
<path d="M50.2465 28.1572C49.2935 28.1572 48.5851 27.9904 48.1215 27.6568C47.6836 27.3232 47.4647 26.9126 47.4647 26.4251L47.851 25.7707C47.6965 26.0273 47.4003 26.3481 46.9624 26.733C46.5245 27.0922 45.9578 27.4258 45.2623 27.7338C44.5669 28.016 43.704 28.1572 42.6737 28.1572C41.4888 28.1572 40.3554 27.9006 39.2736 27.3873C38.2175 26.8741 37.2773 26.1685 36.4531 25.2703C35.6288 24.3466 34.972 23.3073 34.4826 22.1526C34.0189 20.9979 33.7871 19.779 33.7871 18.496C33.7871 17.2386 34.0189 16.0454 34.4826 14.9163C34.972 13.7616 35.6288 12.748 36.4531 11.8756C37.3031 10.9774 38.2561 10.2718 39.3122 9.75856C40.3683 9.24535 41.4888 8.98875 42.6737 8.98875C43.6267 8.98875 44.4381 9.12988 45.1078 9.41214C45.7775 9.66875 46.3313 9.97668 46.7692 10.3359C47.2328 10.6952 47.5806 11.0416 47.8124 11.3752L47.5033 10.8363C47.4775 10.2205 47.6836 9.75856 48.1215 9.45064C48.5851 9.11705 49.3064 8.95026 50.2852 8.95026C51.2125 8.95026 51.8693 9.09139 52.2557 9.37365C52.6678 9.65592 52.9125 10.028 52.9898 10.4899C53.0928 10.9518 53.1443 11.4393 53.1443 11.9525V25.2319C53.1443 25.7194 53.0928 26.1941 52.9898 26.656C52.9125 27.1179 52.6678 27.49 52.2557 27.7722C51.8693 28.0289 51.1996 28.1572 50.2465 28.1572ZM43.5237 22.422C44.1934 22.422 44.7987 22.2552 45.3396 21.9216C45.9063 21.5624 46.3442 21.0877 46.6533 20.4975C46.9881 19.9073 47.1556 19.253 47.1556 18.5345C47.1556 17.7903 46.9881 17.136 46.6533 16.5714C46.3184 15.9812 45.8677 15.5193 45.301 15.1858C44.7343 14.8265 44.1161 14.6469 43.4464 14.6469C42.6994 14.6469 42.0297 14.8265 41.4373 15.1858C40.8706 15.545 40.4069 16.0197 40.0463 16.6099C39.7115 17.2001 39.544 17.8673 39.544 18.6114C39.544 19.3043 39.7115 19.9458 40.0463 20.536C40.4069 21.1005 40.8835 21.5624 41.4759 21.9216C42.0941 22.2552 42.7767 22.422 43.5237 22.422Z" fill="white"/>
<path d="M30.2805 28.1956C29.2244 28.1956 28.2843 28.1315 27.46 28.0032C26.6615 27.9005 25.966 27.6953 25.3736 27.3873C24.8069 27.0794 24.3433 26.656 23.9827 26.1171C23.622 25.5783 23.3516 24.8854 23.1713 24.0386C23.0167 23.1662 22.9395 22.1013 22.9395 20.8439V3.06116C22.9395 2.54795 22.9781 2.07323 23.0554 1.637C23.1584 1.20078 23.416 0.841528 23.8281 0.559262C24.2402 0.276997 24.9099 0.135864 25.8372 0.135864C26.7645 0.135864 27.4214 0.276997 27.8077 0.559262C28.2199 0.841528 28.4774 1.20078 28.5805 1.637C28.6835 2.07323 28.735 2.54795 28.735 3.06116V20.5745C28.735 20.985 28.7479 21.3314 28.7737 21.6137C28.8252 21.8703 28.9025 22.0756 29.0055 22.2296C29.1343 22.3835 29.3017 22.4862 29.5078 22.5375C29.7138 22.5888 29.9843 22.6145 30.3191 22.6145C30.6282 22.6145 30.9373 22.653 31.2464 22.7299C31.5813 22.8069 31.8646 23.0379 32.0965 23.4228C32.3283 23.8077 32.4442 24.4492 32.4442 25.3473C32.4442 26.2711 32.3283 26.9383 32.0965 27.3488C31.8646 27.7594 31.5813 28.0032 31.2464 28.0802C30.9373 28.1571 30.6154 28.1956 30.2805 28.1956Z" fill="white"/>
<path d="M2.93642 28.1956C1.98337 28.1956 1.30078 28.0545 0.888654 27.7722C0.502283 27.49 0.257581 27.1179 0.154548 26.656C0.0515161 26.1941 0 25.7194 0 25.2319V4.21589C0 3.72834 0.0515161 3.26645 0.154548 2.83022C0.257581 2.36833 0.515162 1.99625 0.927291 1.71399C1.33942 1.43172 2.02201 1.29059 2.97506 1.29059H10.8957C11.9775 1.29059 13.0594 1.48304 14.1412 1.86795C15.2488 2.25286 16.2662 2.85588 17.1935 3.67702C18.1466 4.47249 18.9064 5.46042 19.4731 6.64081C20.0655 7.82119 20.3618 9.20686 20.3618 10.7978C20.3618 12.3631 20.0655 13.7359 19.4731 14.9163C18.9064 16.0967 18.1466 17.0846 17.1935 17.8801C16.2662 18.6499 15.2488 19.2401 14.1412 19.6507C13.0336 20.0356 11.9389 20.2281 10.857 20.2281H5.91148V25.2703C5.91148 25.7579 5.85996 26.2326 5.75693 26.6945C5.6539 27.1307 5.39632 27.49 4.98419 27.7722C4.57206 28.0545 3.88947 28.1956 2.93642 28.1956ZM5.91148 14.3775H10.8957C11.4623 14.3775 12.0161 14.262 12.5571 14.031C13.1237 13.7744 13.5874 13.3767 13.948 12.8378C14.3344 12.299 14.5276 11.6061 14.5276 10.7593C14.5276 10.0408 14.373 9.41214 14.0639 8.87327C13.7548 8.3344 13.3169 7.911 12.7503 7.60308C12.2093 7.29515 11.5783 7.14119 10.857 7.14119H5.91148V14.3775Z" fill="white"/>
<path d="M99.123 2.62343C99.123 1.17455 100.234 0 101.604 0H102.957C104.327 0 105.438 1.17455 105.438 2.62343V4.05439C105.438 5.50327 104.327 6.67782 102.957 6.67782H101.604C100.234 6.67782 99.123 5.50327 99.123 4.05439V2.62343Z" fill="#4EACFF"/>
<path fill-rule="evenodd" clip-rule="evenodd" d="M8.24029 41.696C2.96415 37.501 -0.0520597 31.2558 0.202409 23.3724L5.86409 23.5578C5.66546 29.7114 7.94754 34.1938 11.7499 37.217C15.6482 40.3165 21.3938 42.0671 28.2978 42.0671C34.3489 42.0671 42.2143 42.0843 50.8368 42.1033C70.8306 42.1471 94.8944 42.2 109.844 42.0672C113.135 42.0379 118.082 41.6353 122.134 39.3429C124.112 38.2239 125.851 36.6686 127.11 34.4784C128.371 32.2856 129.242 29.2979 129.242 25.1769H134.907C134.907 30.1287 133.852 34.1378 132.012 37.3384C130.17 40.5418 127.632 42.7769 124.908 44.318C119.557 47.3457 113.401 47.7419 109.894 47.7731C94.9122 47.9062 70.7808 47.8532 50.7741 47.8093C42.166 47.7904 34.3214 47.7732 28.2978 47.7732C20.5338 47.7732 13.4206 45.8148 8.24029 41.696Z" fill="white"/>
</svg>
