<svg width="57" height="57" viewBox="0 0 57 57" fill="none" xmlns="http://www.w3.org/2000/svg">
<g clip-path="url(#clip0_865_32)">
<path d="M23.1444 0.147232C20.9512 0.681606 19.0809 2.59645 18.6244 4.75621C18.5354 5.1904 18.5131 7.37243 18.5354 12.2263L18.5688 19.0841L18.8916 19.4961C19.7934 20.6873 21.6414 20.5314 22.2871 19.2066C22.5209 18.7168 22.5209 18.6054 22.5209 12.2041C22.5209 4.88981 22.4987 5.1236 23.367 4.46676L23.7789 4.14391L37.6949 4.11051L51.5998 4.08825L52.0451 4.33317C52.2901 4.47789 52.6129 4.78962 52.7576 5.04567L53.0248 5.50211V28.4691V51.4361L52.7576 51.8925C52.6129 52.1486 52.2901 52.4603 52.0451 52.605L51.5998 52.85L37.6949 52.8277L23.7789 52.7943L23.367 52.4715C22.4987 51.8146 22.5209 52.0484 22.5209 44.7341C22.5209 38.3328 22.5209 38.2215 22.2871 37.7316C21.6414 36.4068 19.7934 36.2509 18.8916 37.4422L18.5688 37.8541L18.5354 44.7119C18.5131 49.5658 18.5354 51.7478 18.6244 52.182C18.9696 53.8185 20.1942 55.4328 21.6971 56.2121C23.2223 57.0136 22.3651 56.9802 38.1403 56.9468L52.3012 56.9134L53.0471 56.624C53.459 56.4681 54.0379 56.1675 54.3496 55.9783C55.6299 55.1545 56.7543 53.4845 57.0215 52.0261C57.1885 51.091 57.1885 5.84723 57.0215 4.91208C56.7543 3.45368 55.6299 1.78376 54.3496 0.959927C54.0379 0.770668 53.459 0.470081 53.0471 0.314224L52.3012 0.0247688L38.0512 0.00250626C26.0278 -0.00862885 23.701 0.0136375 23.1444 0.147232Z" fill="white" stroke="white" stroke-width="2"/>
<path d="M11.3004 16.5323C10.7327 16.8329 0.445944 27.1642 0.212155 27.6651C-0.0438997 28.2106 -0.0550326 28.7116 0.167624 29.2571C0.412546 29.8249 10.7883 40.2341 11.4118 40.5347C11.9573 40.7907 12.4582 40.8019 12.9926 40.5792C13.527 40.3565 13.7831 40.1228 14.0391 39.6106C14.2952 39.1097 14.3063 38.4306 14.0836 37.8739C13.9612 37.5956 12.7477 36.2931 10.4321 33.9774L6.95864 30.504H24.1032H41.2477L41.693 30.248C43.0846 29.4575 43.0846 27.5427 41.693 26.7522L41.2477 26.4962H24.1032H6.95864L10.3764 23.0673C14.0948 19.3489 14.3508 19.0149 14.2061 18.1243C14.028 17.0556 13.3823 16.4544 12.3135 16.3876C11.8459 16.3653 11.5342 16.4099 11.3004 16.5323Z" fill="white" stroke="white" stroke-width="2"/>
</g>
<defs>
<clipPath id="clip0_865_32">
<rect width="57" height="57" fill="white"/>
</clipPath>
</defs>
</svg>
