<svg width="95" height="383" viewBox="0 0 95 383" fill="none" xmlns="http://www.w3.org/2000/svg">
<path d="M93 0C144.362 0 186 43.2045 186 96.5C186 149.795 144.362 193 93 193C41.6375 193 0 149.795 0 96.5C0 43.2045 41.6375 0 93 0Z" fill="#4EACFF"/>
<path d="M93 95C144.362 95 186 138.205 186 191.5C186 244.795 144.362 288 93 288C41.6375 288 0 244.795 0 191.5C0 138.205 41.6375 95 93 95Z" fill="#1B7FD7"/>
<path d="M93 190C144.362 190 186 233.205 186 286.5C186 339.795 144.362 383 93 383C41.6375 383 0 339.795 0 286.5C0 233.205 41.6375 190 93 190Z" fill="#232C65"/>
</svg>
