<svg width="94" height="383" viewBox="0 0 94 383" fill="none" xmlns="http://www.w3.org/2000/svg">
<path d="M1 0C52.3625 0 94 43.2045 94 96.5C94 149.795 52.3625 193 1 193C-50.3625 193 -92 149.795 -92 96.5C-92 43.2045 -50.3625 0 1 0Z" fill="#4EACFF"/>
<path d="M1 95C52.3625 95 94 138.205 94 191.5C94 244.795 52.3625 288 1 288C-50.3625 288 -92 244.795 -92 191.5C-92 138.205 -50.3625 95 1 95Z" fill="#1B7FD7"/>
<path d="M1 190C52.3625 190 94 233.205 94 286.5C94 339.795 52.3625 383 1 383C-50.3625 383 -92 339.795 -92 286.5C-92 233.205 -50.3625 190 1 190Z" fill="#232C65"/>
</svg>
