<svg width="21" height="17" viewBox="0 0 21 17" fill="none" xmlns="http://www.w3.org/2000/svg">
<path fill-rule="evenodd" clip-rule="evenodd" d="M20.75 8.03525C20.75 8.58753 20.3023 9.03525 19.75 9.03525L1.00001 9.03525C0.447725 9.03525 1.14441e-05 8.58753 1.14441e-05 8.03525C1.14441e-05 7.48296 0.447725 7.03525 1.00001 7.03525L19.75 7.03525C20.3023 7.03525 20.75 7.48296 20.75 8.03525Z" fill="white"/>
<path fill-rule="evenodd" clip-rule="evenodd" d="M7.91414 15.8182C7.50125 16.185 6.86919 16.1476 6.50239 15.7347L0.25239 8.69944C-0.0841446 8.32062 -0.0841446 7.74996 0.25239 7.37114L6.50239 0.335847C6.86919 -0.0770407 7.50125 -0.114402 7.91414 0.252398C8.32703 0.619199 8.36439 1.25126 7.99759 1.66415L2.33761 8.03529L7.99759 14.4064C8.36439 14.8193 8.32703 15.4514 7.91414 15.8182Z" fill="white"/>
</svg>
