<svg width="838" height="695" viewBox="0 0 838 695" fill="none" xmlns="http://www.w3.org/2000/svg">
<g filter="url(#filter0_d_1899_193)">
<circle cx="228.5" cy="253.5" r="224.5" fill="#232C65"/>
</g>
<g filter="url(#filter1_d_1899_193)">
<path d="M664 476C664 592.532 569.532 687 453 687C336.468 687 242 592.532 242 476C242 359.468 336.468 265 453 265C569.532 265 664 359.468 664 476Z" fill="#1B7FD7"/>
</g>
<g filter="url(#filter2_d_1899_193)">
<path d="M834 248.5C834 385.743 722.743 497 585.5 497C448.257 497 337 385.743 337 248.5C337 111.257 448.257 0 585.5 0C722.743 0 834 111.257 834 248.5Z" fill="#4EACFF"/>
</g>
<defs>
<filter id="filter0_d_1899_193" x="0" y="29" width="457" height="457" filterUnits="userSpaceOnUse" color-interpolation-filters="sRGB">
<feFlood flood-opacity="0" result="BackgroundImageFix"/>
<feColorMatrix in="SourceAlpha" type="matrix" values="0 0 0 0 0 0 0 0 0 0 0 0 0 0 0 0 0 0 127 0" result="hardAlpha"/>
<feOffset dy="4"/>
<feGaussianBlur stdDeviation="2"/>
<feComposite in2="hardAlpha" operator="out"/>
<feColorMatrix type="matrix" values="0 0 0 0 0 0 0 0 0 0 0 0 0 0 0 0 0 0 0.25 0"/>
<feBlend mode="normal" in2="BackgroundImageFix" result="effect1_dropShadow_1899_193"/>
<feBlend mode="normal" in="SourceGraphic" in2="effect1_dropShadow_1899_193" result="shape"/>
</filter>
<filter id="filter1_d_1899_193" x="238" y="265" width="430" height="430" filterUnits="userSpaceOnUse" color-interpolation-filters="sRGB">
<feFlood flood-opacity="0" result="BackgroundImageFix"/>
<feColorMatrix in="SourceAlpha" type="matrix" values="0 0 0 0 0 0 0 0 0 0 0 0 0 0 0 0 0 0 127 0" result="hardAlpha"/>
<feOffset dy="4"/>
<feGaussianBlur stdDeviation="2"/>
<feComposite in2="hardAlpha" operator="out"/>
<feColorMatrix type="matrix" values="0 0 0 0 0 0 0 0 0 0 0 0 0 0 0 0 0 0 0.25 0"/>
<feBlend mode="normal" in2="BackgroundImageFix" result="effect1_dropShadow_1899_193"/>
<feBlend mode="normal" in="SourceGraphic" in2="effect1_dropShadow_1899_193" result="shape"/>
</filter>
<filter id="filter2_d_1899_193" x="333" y="0" width="505" height="505" filterUnits="userSpaceOnUse" color-interpolation-filters="sRGB">
<feFlood flood-opacity="0" result="BackgroundImageFix"/>
<feColorMatrix in="SourceAlpha" type="matrix" values="0 0 0 0 0 0 0 0 0 0 0 0 0 0 0 0 0 0 127 0" result="hardAlpha"/>
<feOffset dy="4"/>
<feGaussianBlur stdDeviation="2"/>
<feComposite in2="hardAlpha" operator="out"/>
<feColorMatrix type="matrix" values="0 0 0 0 0 0 0 0 0 0 0 0 0 0 0 0 0 0 0.25 0"/>
<feBlend mode="normal" in2="BackgroundImageFix" result="effect1_dropShadow_1899_193"/>
<feBlend mode="normal" in="SourceGraphic" in2="effect1_dropShadow_1899_193" result="shape"/>
</filter>
</defs>
</svg>
