<svg width="307" height="296" viewBox="0 0 307 296" fill="none" xmlns="http://www.w3.org/2000/svg">
<g filter="url(#filter0_ii_1927_2)">
<ellipse cx="153.5" cy="148" rx="153.5" ry="148" fill="white"/>
</g>
<path d="M305 148C305 228.565 237.241 294 153.5 294C69.7594 294 2 228.565 2 148C2 67.4346 69.7594 2 153.5 2C237.241 2 305 67.4346 305 148Z" stroke="white" stroke-width="4"/>
<path d="M96.7868 93.24C96.4668 93.24 96.2268 93.192 96.0668 93.096C95.9228 93.016 95.8268 92.896 95.7788 92.736C95.7308 92.56 95.7068 92.36 95.7068 92.136V77.568C95.7068 77.152 95.7868 76.872 95.9468 76.728C96.1228 76.568 96.4268 76.488 96.8588 76.488H106.507C106.731 76.488 106.923 76.512 107.083 76.56C107.243 76.608 107.363 76.712 107.443 76.872C107.523 77.032 107.563 77.272 107.563 77.592C107.563 77.912 107.515 78.152 107.419 78.312C107.339 78.456 107.219 78.552 107.059 78.6C106.899 78.648 106.707 78.672 106.483 78.672H97.8668V83.64H103.867C104.091 83.64 104.275 83.664 104.419 83.712C104.579 83.76 104.699 83.856 104.779 84C104.859 84.144 104.899 84.368 104.899 84.672C104.899 84.96 104.859 85.176 104.779 85.32C104.699 85.464 104.579 85.56 104.419 85.608C104.259 85.64 104.059 85.656 103.819 85.656H97.8668V91.08H106.507C106.731 91.08 106.923 91.104 107.083 91.152C107.243 91.2 107.363 91.304 107.443 91.464C107.523 91.608 107.563 91.84 107.563 92.16C107.563 92.48 107.515 92.72 107.419 92.88C107.339 93.024 107.219 93.12 107.059 93.168C106.899 93.216 106.707 93.24 106.483 93.24H96.7868ZM111.404 93.216C111.1 93.216 110.868 93.168 110.708 93.072C110.564 92.992 110.468 92.872 110.42 92.712C110.388 92.552 110.372 92.36 110.372 92.136V82.608C110.372 82.4 110.396 82.224 110.444 82.08C110.492 81.936 110.588 81.824 110.732 81.744C110.892 81.664 111.124 81.624 111.428 81.624C111.668 81.624 111.852 81.656 111.98 81.72C112.124 81.768 112.22 81.84 112.268 81.936C112.332 82.032 112.372 82.136 112.388 82.248C112.404 82.36 112.412 82.464 112.412 82.56L112.364 83.664C112.524 83.392 112.724 83.136 112.964 82.896C113.204 82.64 113.484 82.416 113.804 82.224C114.124 82.016 114.468 81.856 114.836 81.744C115.22 81.632 115.628 81.576 116.06 81.576C116.764 81.576 117.412 81.704 118.004 81.96C118.596 82.2 119.1 82.56 119.516 83.04C119.948 83.504 120.276 84.064 120.5 84.72C120.74 85.376 120.86 86.12 120.86 86.952V92.16C120.86 92.384 120.836 92.576 120.788 92.736C120.756 92.896 120.66 93.016 120.5 93.096C120.356 93.176 120.132 93.216 119.828 93.216C119.508 93.216 119.268 93.168 119.108 93.072C118.964 92.992 118.868 92.872 118.82 92.712C118.772 92.552 118.748 92.36 118.748 92.136V86.928C118.748 86.256 118.636 85.672 118.412 85.176C118.188 84.68 117.852 84.296 117.404 84.024C116.956 83.736 116.388 83.592 115.7 83.592C115.044 83.592 114.468 83.736 113.972 84.024C113.492 84.296 113.116 84.68 112.844 85.176C112.588 85.672 112.46 86.256 112.46 86.928V92.16C112.46 92.384 112.436 92.576 112.388 92.736C112.34 92.896 112.236 93.016 112.076 93.096C111.932 93.176 111.708 93.216 111.404 93.216ZM128.945 93.24C128.193 93.24 127.553 93.168 127.025 93.024C126.513 92.88 126.089 92.656 125.753 92.352C125.417 92.048 125.177 91.656 125.033 91.176C124.889 90.68 124.817 90.072 124.817 89.352V78.744C124.817 78.52 124.841 78.328 124.889 78.168C124.937 78.008 125.033 77.888 125.177 77.808C125.321 77.712 125.545 77.664 125.849 77.664C126.153 77.664 126.385 77.712 126.545 77.808C126.705 77.888 126.809 78.008 126.857 78.168C126.905 78.312 126.929 78.496 126.929 78.72V89.352C126.929 89.768 126.961 90.104 127.025 90.36C127.105 90.6 127.217 90.784 127.361 90.912C127.521 91.04 127.729 91.12 127.985 91.152C128.241 91.184 128.553 91.2 128.921 91.2C129.177 91.2 129.385 91.224 129.545 91.272C129.705 91.32 129.825 91.416 129.905 91.56C129.985 91.704 130.025 91.92 130.025 92.208C130.025 92.512 129.977 92.744 129.881 92.904C129.801 93.048 129.673 93.136 129.497 93.168C129.337 93.216 129.153 93.24 128.945 93.24ZM123.569 81.888L125.873 81.912L129.209 81.864C129.433 81.864 129.625 81.888 129.785 81.936C129.945 81.968 130.065 82.064 130.145 82.224C130.241 82.368 130.289 82.592 130.289 82.896C130.289 83.2 130.249 83.432 130.169 83.592C130.089 83.736 129.969 83.832 129.809 83.88C129.649 83.928 129.457 83.952 129.233 83.952L125.945 83.904L123.521 83.928C123.185 83.928 122.953 83.848 122.825 83.688C122.713 83.528 122.657 83.264 122.657 82.896C122.657 82.544 122.729 82.288 122.873 82.128C123.017 81.968 123.249 81.888 123.569 81.888ZM133.552 93.24C133.248 93.24 133.016 93.192 132.856 93.096C132.712 93.016 132.616 92.896 132.568 92.736C132.536 92.56 132.52 92.36 132.52 92.136V82.68C132.52 82.44 132.544 82.24 132.592 82.08C132.64 81.92 132.736 81.808 132.88 81.744C133.024 81.664 133.256 81.624 133.576 81.624C133.864 81.624 134.08 81.664 134.224 81.744C134.384 81.808 134.488 81.912 134.536 82.056C134.6 82.184 134.632 82.336 134.632 82.512L134.536 83.232C134.648 83.024 134.776 82.816 134.92 82.608C135.08 82.4 135.272 82.216 135.496 82.056C135.736 81.88 136.016 81.736 136.336 81.624C136.672 81.512 137.08 81.456 137.56 81.456C137.8 81.456 138.024 81.48 138.232 81.528C138.456 81.56 138.664 81.616 138.856 81.696C139.064 81.776 139.24 81.872 139.384 81.984C139.528 82.08 139.64 82.192 139.72 82.32C139.816 82.432 139.864 82.568 139.864 82.728C139.864 83.08 139.752 83.384 139.528 83.64C139.304 83.88 139.072 84 138.832 84C138.624 84 138.472 83.976 138.376 83.928C138.28 83.864 138.184 83.8 138.088 83.736C138.008 83.672 137.888 83.616 137.728 83.568C137.568 83.504 137.312 83.472 136.96 83.472C136.72 83.472 136.464 83.52 136.192 83.616C135.936 83.712 135.688 83.856 135.448 84.048C135.208 84.224 135.008 84.456 134.848 84.744C134.704 85.032 134.632 85.368 134.632 85.752V92.184C134.632 92.408 134.608 92.6 134.56 92.76C134.512 92.92 134.408 93.04 134.248 93.12C134.104 93.2 133.872 93.24 133.552 93.24ZM151.056 93.216C150.704 93.216 150.448 93.144 150.288 93C150.144 92.856 150.056 92.632 150.024 92.328L150.12 91.128C149.96 91.384 149.712 91.68 149.376 92.016C149.04 92.336 148.6 92.624 148.056 92.88C147.512 93.12 146.848 93.24 146.064 93.24C145.296 93.24 144.576 93.088 143.904 92.784C143.248 92.48 142.664 92.056 142.152 91.512C141.656 90.968 141.264 90.344 140.976 89.64C140.704 88.936 140.568 88.184 140.568 87.384C140.568 86.6 140.704 85.864 140.976 85.176C141.264 84.472 141.664 83.856 142.176 83.328C142.688 82.8 143.272 82.384 143.928 82.08C144.6 81.776 145.312 81.624 146.064 81.624C146.768 81.624 147.368 81.72 147.864 81.912C148.36 82.088 148.784 82.328 149.136 82.632C149.504 82.92 149.824 83.248 150.096 83.616L150.048 82.608C150.032 82.256 150.104 82.008 150.264 81.864C150.44 81.704 150.712 81.624 151.08 81.624C151.384 81.624 151.6 81.672 151.728 81.768C151.872 81.864 151.968 82 152.016 82.176C152.064 82.352 152.088 82.568 152.088 82.824V92.088C152.088 92.312 152.064 92.512 152.016 92.688C151.968 92.864 151.872 92.992 151.728 93.072C151.584 93.168 151.36 93.216 151.056 93.216ZM146.424 91.224C147.064 91.224 147.648 91.056 148.176 90.72C148.72 90.384 149.144 89.936 149.448 89.376C149.768 88.8 149.928 88.144 149.928 87.408C149.928 86.656 149.76 86 149.424 85.44C149.104 84.864 148.672 84.416 148.128 84.096C147.6 83.76 147.016 83.592 146.376 83.592C145.624 83.592 144.968 83.768 144.408 84.12C143.864 84.456 143.432 84.912 143.112 85.488C142.792 86.064 142.632 86.72 142.632 87.456C142.632 88.176 142.792 88.824 143.112 89.4C143.432 89.96 143.872 90.408 144.432 90.744C145.008 91.064 145.672 91.224 146.424 91.224ZM156.006 93.24C155.702 93.24 155.47 93.192 155.31 93.096C155.166 93.016 155.07 92.896 155.021 92.736C154.99 92.56 154.974 92.36 154.974 92.136V82.68C154.974 82.44 154.998 82.24 155.046 82.08C155.094 81.92 155.19 81.808 155.334 81.744C155.478 81.664 155.71 81.624 156.03 81.624C156.318 81.624 156.534 81.664 156.678 81.744C156.838 81.808 156.942 81.912 156.99 82.056C157.054 82.184 157.086 82.336 157.086 82.512L156.99 83.232C157.102 83.024 157.23 82.816 157.374 82.608C157.534 82.4 157.726 82.216 157.95 82.056C158.19 81.88 158.47 81.736 158.79 81.624C159.126 81.512 159.534 81.456 160.014 81.456C160.254 81.456 160.478 81.48 160.686 81.528C160.91 81.56 161.118 81.616 161.31 81.696C161.518 81.776 161.694 81.872 161.838 81.984C161.982 82.08 162.094 82.192 162.174 82.32C162.27 82.432 162.318 82.568 162.318 82.728C162.318 83.08 162.206 83.384 161.982 83.64C161.758 83.88 161.526 84 161.286 84C161.078 84 160.926 83.976 160.83 83.928C160.734 83.864 160.638 83.8 160.542 83.736C160.462 83.672 160.342 83.616 160.182 83.568C160.022 83.504 159.766 83.472 159.414 83.472C159.174 83.472 158.918 83.52 158.646 83.616C158.39 83.712 158.142 83.856 157.902 84.048C157.662 84.224 157.462 84.456 157.302 84.744C157.158 85.032 157.086 85.368 157.086 85.752V92.184C157.086 92.408 157.062 92.6 157.014 92.76C156.966 92.92 156.862 93.04 156.702 93.12C156.558 93.2 156.326 93.24 156.006 93.24ZM175.656 93.288C174.824 93.288 174.04 93.152 173.304 92.88C172.584 92.608 171.944 92.216 171.384 91.704C170.84 91.192 170.408 90.584 170.088 89.88C169.784 89.16 169.632 88.344 169.632 87.432C169.632 86.52 169.784 85.712 170.088 85.008C170.408 84.288 170.84 83.672 171.384 83.16C171.928 82.648 172.56 82.256 173.28 81.984C174.016 81.712 174.792 81.576 175.608 81.576C176.152 81.576 176.688 81.664 177.216 81.84C177.744 82 178.208 82.216 178.608 82.488C179.024 82.744 179.32 83.016 179.496 83.304C179.656 83.512 179.768 83.688 179.832 83.832C179.912 83.96 179.92 84.112 179.856 84.288C179.792 84.416 179.704 84.536 179.592 84.648C179.48 84.744 179.368 84.824 179.256 84.888C178.968 85.112 178.68 85.144 178.392 84.984C178.216 84.808 178.016 84.648 177.792 84.504C177.584 84.344 177.36 84.2 177.12 84.072C176.88 83.944 176.632 83.848 176.376 83.784C176.136 83.704 175.88 83.664 175.608 83.664C174.856 83.664 174.192 83.824 173.616 84.144C173.04 84.448 172.592 84.888 172.272 85.464C171.968 86.024 171.816 86.68 171.816 87.432C171.816 88.184 171.968 88.84 172.272 89.4C172.592 89.96 173.032 90.4 173.592 90.72C174.168 91.04 174.824 91.2 175.56 91.2C175.896 91.2 176.216 91.16 176.52 91.08C176.84 90.984 177.136 90.864 177.408 90.72C177.68 90.56 177.904 90.392 178.08 90.216C178.24 90.104 178.376 90.008 178.488 89.928C178.6 89.848 178.736 89.808 178.896 89.808C179.024 89.808 179.16 89.864 179.304 89.976C179.448 90.072 179.6 90.224 179.76 90.432C179.888 90.576 179.96 90.728 179.976 90.888C180.008 91.048 179.984 91.2 179.904 91.344C179.824 91.488 179.696 91.632 179.52 91.776C179.264 92.032 178.92 92.28 178.488 92.52C178.072 92.744 177.616 92.928 177.12 93.072C176.624 93.216 176.136 93.288 175.656 93.288ZM187.627 93.384C186.843 93.384 186.091 93.232 185.371 92.928C184.667 92.624 184.035 92.208 183.475 91.68C182.915 91.136 182.475 90.504 182.155 89.784C181.835 89.064 181.675 88.28 181.675 87.432C181.675 86.6 181.827 85.832 182.131 85.128C182.435 84.408 182.859 83.776 183.403 83.232C183.947 82.688 184.571 82.264 185.275 81.96C185.995 81.64 186.763 81.48 187.579 81.48C188.683 81.48 189.675 81.744 190.555 82.272C191.451 82.784 192.163 83.488 192.691 84.384C193.219 85.28 193.483 86.288 193.483 87.408C193.483 88.288 193.323 89.096 193.003 89.832C192.683 90.552 192.251 91.176 191.707 91.704C191.163 92.232 190.539 92.648 189.835 92.952C189.131 93.24 188.395 93.384 187.627 93.384ZM187.579 91.296C188.251 91.296 188.875 91.128 189.451 90.792C190.027 90.456 190.491 89.992 190.843 89.4C191.195 88.808 191.371 88.136 191.371 87.384C191.371 86.632 191.203 85.968 190.867 85.392C190.547 84.816 190.099 84.368 189.523 84.048C188.947 83.728 188.291 83.568 187.555 83.568C186.851 83.568 186.211 83.736 185.635 84.072C185.075 84.408 184.619 84.864 184.267 85.44C183.931 86.016 183.763 86.672 183.763 87.408C183.763 88.176 183.939 88.856 184.291 89.448C184.643 90.024 185.107 90.48 185.683 90.816C186.275 91.136 186.907 91.296 187.579 91.296ZM196.833 93.24C196.529 93.24 196.305 93.192 196.161 93.096C196.017 93 195.921 92.872 195.873 92.712C195.825 92.552 195.801 92.36 195.801 92.136V82.632C195.801 82.408 195.825 82.224 195.873 82.08C195.921 81.936 196.017 81.824 196.161 81.744C196.321 81.664 196.553 81.624 196.857 81.624C197.209 81.624 197.457 81.696 197.601 81.84C197.761 81.968 197.841 82.2 197.841 82.536L197.745 83.568C197.857 83.328 198.025 83.088 198.249 82.848C198.473 82.608 198.737 82.392 199.041 82.2C199.361 82.008 199.697 81.856 200.049 81.744C200.401 81.632 200.761 81.576 201.129 81.576C201.689 81.576 202.185 81.68 202.617 81.888C203.065 82.08 203.465 82.36 203.817 82.728C204.169 83.096 204.465 83.552 204.705 84.096C205.025 83.568 205.361 83.12 205.713 82.752C206.081 82.368 206.497 82.08 206.961 81.888C207.425 81.68 207.945 81.576 208.521 81.576C209.433 81.576 210.193 81.808 210.801 82.272C211.425 82.72 211.889 83.36 212.193 84.192C212.513 85.008 212.673 85.992 212.673 87.144V92.16C212.673 92.384 212.649 92.576 212.601 92.736C212.569 92.896 212.473 93.016 212.313 93.096C212.169 93.192 211.937 93.24 211.617 93.24C211.313 93.24 211.081 93.192 210.921 93.096C210.777 93 210.681 92.872 210.633 92.712C210.585 92.552 210.561 92.36 210.561 92.136V87.12C210.561 86.4 210.473 85.784 210.297 85.272C210.137 84.744 209.881 84.336 209.529 84.048C209.193 83.76 208.753 83.616 208.209 83.616C207.633 83.616 207.121 83.76 206.673 84.048C206.241 84.32 205.905 84.72 205.665 85.248C205.425 85.776 205.305 86.4 205.305 87.12V92.184C205.305 92.424 205.257 92.632 205.161 92.808C205.065 92.984 204.921 93.104 204.729 93.168C204.537 93.248 204.305 93.264 204.033 93.216C203.777 93.184 203.585 93.12 203.457 93.024C203.329 92.928 203.249 92.808 203.217 92.664C203.185 92.504 203.169 92.328 203.169 92.136V87.12C203.169 86.4 203.081 85.784 202.905 85.272C202.745 84.744 202.489 84.336 202.137 84.048C201.801 83.76 201.361 83.616 200.817 83.616C200.241 83.616 199.729 83.768 199.281 84.072C198.849 84.36 198.513 84.768 198.273 85.296C198.033 85.824 197.913 86.432 197.913 87.12V92.16C197.913 92.384 197.889 92.576 197.841 92.736C197.793 92.896 197.689 93.016 197.529 93.096C197.385 93.192 197.153 93.24 196.833 93.24Z" fill="#0F4C81"/>
<path d="M138.383 162.385C138.383 171.963 130.842 179.02 121.586 179.02C112.331 179.02 104.789 171.963 104.789 162.385C104.789 152.74 112.331 145.75 121.586 145.75C130.842 145.75 138.383 152.74 138.383 162.385ZM131.03 162.385C131.03 156.4 126.659 152.305 121.586 152.305C116.513 152.305 112.142 156.4 112.142 162.385C112.142 168.31 116.513 172.465 121.586 172.465C126.659 172.465 131.03 168.302 131.03 162.385Z" fill="#EA4335"/>
<path d="M174.62 162.385C174.62 171.963 167.078 179.02 157.823 179.02C148.567 179.02 141.025 171.963 141.025 162.385C141.025 152.747 148.567 145.75 157.823 145.75C167.078 145.75 174.62 152.74 174.62 162.385ZM167.267 162.385C167.267 156.4 162.896 152.305 157.823 152.305C152.749 152.305 148.378 156.4 148.378 162.385C148.378 168.31 152.749 172.465 157.823 172.465C162.896 172.465 167.267 168.302 167.267 162.385Z" fill="#FBBC05"/>
<path d="M209.346 146.755V176.62C209.346 188.905 202.053 193.923 193.432 193.923C185.316 193.923 180.432 188.53 178.59 184.12L184.992 181.472C186.132 184.18 188.925 187.375 193.424 187.375C198.943 187.375 202.362 183.993 202.362 177.625V175.232H202.106C200.46 177.25 197.289 179.012 193.288 179.012C184.916 179.012 177.246 171.767 177.246 162.445C177.246 153.055 184.916 145.75 193.288 145.75C197.282 145.75 200.453 147.512 202.106 149.47H202.362V146.763H209.346V146.755ZM202.883 162.445C202.883 156.587 198.95 152.305 193.945 152.305C188.872 152.305 184.622 156.587 184.622 162.445C184.622 168.242 188.872 172.465 193.945 172.465C198.95 172.465 202.883 168.242 202.883 162.445Z" fill="#4285F4"/>
<path d="M220.859 129.25V178H213.688V129.25H220.859Z" fill="#34A853"/>
<path d="M248.805 167.86L254.512 171.64C252.67 174.347 248.231 179.013 240.561 179.013C231.049 179.013 223.945 171.707 223.945 162.377C223.945 152.485 231.11 145.743 239.738 145.743C248.428 145.743 252.678 152.612 254.067 156.325L254.829 158.215L232.446 167.425C234.159 170.763 236.824 172.465 240.561 172.465C244.306 172.465 246.903 170.635 248.805 167.86ZM231.238 161.875L246.201 155.703C245.378 153.625 242.902 152.178 239.987 152.178C236.251 152.178 231.049 155.455 231.238 161.875Z" fill="#EA4335"/>
<path d="M77.6411 158.057V151H101.58C101.814 152.23 101.935 153.685 101.935 155.26C101.935 160.555 100.478 167.102 95.7819 171.767C91.2146 176.492 85.3791 179.012 77.6486 179.012C63.3201 179.012 51.2715 167.417 51.2715 153.182C51.2715 138.947 63.3201 127.352 77.6486 127.352C85.5753 127.352 91.2222 130.442 95.4649 134.47L90.4522 139.45C87.4098 136.615 83.2879 134.41 77.6411 134.41C67.1778 134.41 58.9944 142.787 58.9944 153.182C58.9944 163.577 67.1778 171.955 77.6411 171.955C84.4279 171.955 88.2931 169.247 90.7692 166.787C92.7773 164.792 94.0985 161.942 94.6194 158.05L77.6411 158.057Z" fill="#4285F4"/>
<defs>
<filter id="filter0_ii_1927_2" x="0" y="-4" width="307" height="304" filterUnits="userSpaceOnUse" color-interpolation-filters="sRGB">
<feFlood flood-opacity="0" result="BackgroundImageFix"/>
<feBlend mode="normal" in="SourceGraphic" in2="BackgroundImageFix" result="shape"/>
<feColorMatrix in="SourceAlpha" type="matrix" values="0 0 0 0 0 0 0 0 0 0 0 0 0 0 0 0 0 0 127 0" result="hardAlpha"/>
<feOffset dy="-4"/>
<feGaussianBlur stdDeviation="2"/>
<feComposite in2="hardAlpha" operator="arithmetic" k2="-1" k3="1"/>
<feColorMatrix type="matrix" values="0 0 0 0 0.532448 0 0 0 0 0.532448 0 0 0 0 0.532448 0 0 0 1 0"/>
<feBlend mode="normal" in2="shape" result="effect1_innerShadow_1927_2"/>
<feColorMatrix in="SourceAlpha" type="matrix" values="0 0 0 0 0 0 0 0 0 0 0 0 0 0 0 0 0 0 127 0" result="hardAlpha"/>
<feOffset dy="4"/>
<feGaussianBlur stdDeviation="2"/>
<feComposite in2="hardAlpha" operator="arithmetic" k2="-1" k3="1"/>
<feColorMatrix type="matrix" values="0 0 0 0 0.533333 0 0 0 0 0.533333 0 0 0 0 0.533333 0 0 0 1 0"/>
<feBlend mode="normal" in2="effect1_innerShadow_1927_2" result="effect2_innerShadow_1927_2"/>
</filter>
</defs>
</svg>
