<svg width="160" height="160" viewBox="0 0 160 160" fill="none" xmlns="http://www.w3.org/2000/svg">
<circle cx="80" cy="80" r="80" fill="#133452"/>
<path d="M80.1214 101.771C77.9867 101.771 76.4449 101.421 75.4961 100.721C74.5474 100.02 73.984 99.1285 73.8061 98.0459C73.6283 96.9633 73.5393 95.7852 73.5393 94.5115V61.0781C73.5393 59.8045 73.6283 58.6582 73.8061 57.6393C74.0433 56.5566 74.6363 55.6969 75.5851 55.0601C76.5339 54.3596 78.1053 54.0093 80.2993 54.0093C82.4933 54.0093 84.0944 54.487 85.1025 55.4422C86.1105 56.3338 86.6146 57.8303 86.6146 59.9318L85.4583 60.9826C85.5769 60.6642 85.9326 60.1229 86.5256 59.3587C87.1186 58.5945 87.8895 57.7985 88.8383 56.9706C89.787 56.1427 90.884 55.4422 92.1293 54.8691C93.4339 54.2322 94.8274 53.9138 96.3098 53.9138C98.2667 53.9138 100.016 54.2322 101.558 54.8691C103.159 55.4422 104.582 56.3338 105.827 57.5437C107.132 58.69 108.258 60.1547 109.207 61.9378C110.037 60.6642 111.045 59.4224 112.231 58.2124C113.417 57.0024 114.811 55.9835 116.412 55.1556C118.072 54.3278 119.911 53.9138 121.927 53.9138C125.366 53.9138 128.272 54.8691 130.644 56.7795C133.075 58.6263 134.913 61.301 136.158 64.8036C137.404 68.3061 138.026 72.541 138.026 77.5082V94.607C138.026 95.817 137.908 96.9951 137.67 98.1414C137.492 99.224 136.929 100.116 135.98 100.816C135.032 101.453 133.46 101.771 131.266 101.771C129.072 101.771 127.501 101.421 126.552 100.721C125.662 100.02 125.099 99.1285 124.862 98.0459C124.684 96.8996 124.595 95.7215 124.595 94.5115V77.4127C124.595 75.4386 124.388 73.7828 123.972 72.4455C123.557 71.1081 122.905 70.0892 122.016 69.3887C121.185 68.6245 120.118 68.2424 118.814 68.2424C117.45 68.2424 116.293 68.5927 115.345 69.2932C114.396 69.93 113.684 70.9489 113.21 72.3499C112.735 73.6873 112.498 75.4067 112.498 77.5082V94.607C112.498 95.8807 112.35 97.0907 112.054 98.237C111.757 99.3196 111.105 100.211 110.097 100.912C109.148 101.548 107.606 101.835 105.471 101.771C103.337 101.708 101.825 101.326 100.935 100.625C100.046 99.9245 99.5119 99.033 99.3341 97.9504C99.1562 96.8041 99.0672 95.6578 99.0672 94.5115V77.4127C99.0672 75.4386 98.8597 73.7828 98.4446 72.4455C98.0295 71.0445 97.4069 69.9937 96.5767 69.2932C95.7465 68.5927 94.6495 68.2424 93.2856 68.2424C91.8032 68.2424 90.5876 68.6564 89.6388 69.4842C88.69 70.3121 87.9784 71.4265 87.504 72.8276C87.089 74.1649 86.8814 75.6933 86.8814 77.4127V94.607C86.8814 95.8807 86.7628 97.0588 86.5256 98.1414C86.3477 99.224 85.7844 100.116 84.8356 100.816C83.8869 101.453 82.3155 101.771 80.1214 101.771Z" fill="white"/>
<path d="M27.76 101.771C25.566 101.771 23.9946 101.421 23.0458 100.721C22.1563 100.02 21.593 99.0966 21.3558 97.9503C21.1186 96.804 21 95.6259 21 94.4159V42.2598C21 41.0499 21.1186 39.9036 21.3558 38.821C21.593 37.6747 22.186 36.7513 23.1347 36.0508C24.0835 35.3503 25.6549 35 27.8489 35H46.0832C48.5737 35 51.0642 35.4776 53.5547 36.4329C56.1046 37.3881 58.4468 38.8846 60.5816 40.9225C62.7756 42.8967 64.5249 45.3484 65.8295 48.2778C67.1933 51.2072 67.8753 54.6461 67.8753 58.5944C67.8753 62.4791 67.1933 65.8861 65.8295 68.8155C64.5249 71.7449 62.7756 74.1967 60.5816 76.1709C58.4468 78.0813 56.1046 79.546 53.5547 80.565C51.0049 81.5202 48.4847 81.9978 45.9942 81.9978H34.6089V94.5115C34.6089 95.7214 34.4904 96.8996 34.2532 98.0458C34.016 99.1285 33.423 100.02 32.4742 100.721C31.5254 101.421 29.954 101.771 27.76 101.771ZM34.6089 67.4782H46.0832C47.3877 67.4782 48.6626 67.1916 49.9079 66.6184C51.2125 65.9816 52.2798 64.9945 53.11 63.6572C53.9995 62.3199 54.4442 60.6004 54.4442 58.4989C54.4442 56.7158 54.0884 55.1556 53.3768 53.8182C52.6653 52.4809 51.6572 51.4301 50.3526 50.6659C49.1074 49.9017 47.6546 49.5197 45.9942 49.5197H34.6089V67.4782Z" fill="white"/>
<path fill-rule="evenodd" clip-rule="evenodd" d="M28.9827 116.258C23.0879 110.123 21.0369 101.524 21.1404 92.1545L34.1951 92.324C34.1153 99.5568 35.7167 103.647 38.0246 106.049C40.4066 108.528 44.8077 110.539 52.9907 110.539C54.9802 110.539 56.0491 110.552 56.5873 110.578L56.5963 110.578C56.6692 110.582 56.8551 110.59 57.0843 110.615C57.1474 110.613 57.214 110.611 57.2842 110.609C57.868 110.594 58.7016 110.572 59.884 110.541C60.6595 110.521 64.2936 110.169 67.5203 107.97C70.2803 106.089 73.3571 102.507 73.3571 94.264H86.4128C86.4128 107.483 80.9426 115.541 74.468 119.953C68.4601 124.047 62.1719 124.639 60.1966 124.691C59.0483 124.72 58.2169 124.742 57.6248 124.758C57.1091 124.772 56.7749 124.781 56.5711 124.786C56.4641 124.788 56.3628 124.791 56.2826 124.792L56.2809 124.792C56.2524 124.792 56.1631 124.793 56.0612 124.792C56.0501 124.792 55.8475 124.79 55.5989 124.767C55.524 124.761 55.3858 124.747 55.2138 124.72L55.2117 124.72C55.187 124.716 55.1471 124.71 55.0945 124.7C54.625 124.696 53.9483 124.693 52.9907 124.693C43.1555 124.693 34.8035 122.317 28.9827 116.258ZM56.0069 124.717C56.0413 124.719 56.0332 124.719 55.9941 124.717C55.9986 124.717 56.0029 124.717 56.0069 124.717ZM50.1012 116.313C50.2006 115.763 50.3558 115.25 50.5475 114.785C50.5686 114.733 50.59 114.683 50.6118 114.633C50.4204 115.157 50.2441 115.73 50.1012 116.313ZM56.6764 124.767L56.6774 124.767C56.6716 124.767 56.6707 124.767 56.6764 124.767Z" fill="white"/>
</svg>
