<svg width="55" height="55" viewBox="0 0 55 55" fill="none" xmlns="http://www.w3.org/2000/svg">
<path d="M27.5 20.68C26.1511 20.68 24.8326 21.08 23.711 21.8294C22.5895 22.5788 21.7153 23.6439 21.1991 24.8901C20.683 26.1363 20.5479 27.5076 20.811 28.8305C21.0742 30.1535 21.7237 31.3687 22.6775 32.3225C23.6313 33.2763 24.8465 33.9258 26.1695 34.189C27.4924 34.4521 28.8637 34.317 30.1099 33.8009C31.3561 33.2847 32.4212 32.4105 33.1706 31.289C33.92 30.1674 34.32 28.8489 34.32 27.5C34.32 26.6044 34.1436 25.7175 33.8009 24.8901C33.4581 24.0627 32.9558 23.3108 32.3225 22.6775C31.6892 22.0442 30.9373 21.5419 30.1099 21.1991C29.2825 20.8564 28.3956 20.68 27.5 20.68ZM54.8075 13.9425C54.793 11.8188 54.402 9.71457 53.6525 7.7275C53.1005 6.27346 52.2465 4.95301 51.1467 3.85326C50.047 2.75351 48.7265 1.89947 47.2725 1.3475C45.2854 0.598025 43.1812 0.206967 41.0575 0.1925C37.51 -1.82125e-07 36.465 0 27.5 0C18.535 0 17.49 -1.82125e-07 13.9425 0.1925C11.8188 0.206967 9.71457 0.598025 7.7275 1.3475C6.27346 1.89947 4.95301 2.75351 3.85326 3.85326C2.75351 4.95301 1.89947 6.27346 1.3475 7.7275C0.598025 9.71457 0.206967 11.8188 0.1925 13.9425C-1.82125e-07 17.49 0 18.535 0 27.5C0 36.465 -1.82125e-07 37.51 0.1925 41.0575C0.222101 43.1886 0.612629 45.2994 1.3475 47.3C1.89703 48.7474 2.75035 50.0602 3.85 51.15C4.94503 52.2563 6.26832 53.1104 7.7275 53.6525C9.71457 54.402 11.8188 54.793 13.9425 54.8075C17.49 55 18.535 55 27.5 55C36.465 55 37.51 55 41.0575 54.8075C43.1812 54.793 45.2854 54.402 47.2725 53.6525C48.7317 53.1104 50.055 52.2563 51.15 51.15C52.2496 50.0602 53.103 48.7474 53.6525 47.3C54.4012 45.3032 54.7922 43.19 54.8075 41.0575C55 37.51 55 36.465 55 27.5C55 18.535 55 17.49 54.8075 13.9425ZM47.8225 35.9425C47.7342 37.6395 47.3721 39.3111 46.75 40.8925C46.2161 42.2116 45.4225 43.41 44.4162 44.4162C43.41 45.4225 42.2116 46.2161 40.8925 46.75C39.2962 47.3374 37.6152 47.6624 35.915 47.7125H19.085C17.3848 47.6624 15.7038 47.3374 14.1075 46.75C12.7438 46.2432 11.5123 45.4347 10.505 44.385C9.50858 43.3984 8.73907 42.2066 8.25 40.8925C7.66028 39.2978 7.34417 37.615 7.315 35.915V19.085C7.34417 17.385 7.66028 15.7022 8.25 14.1075C8.75677 12.7438 9.56525 11.5123 10.615 10.505C11.6059 9.51396 12.7965 8.74526 14.1075 8.25C15.7038 7.66262 17.3848 7.33758 19.085 7.2875H35.915C37.6152 7.33758 39.2962 7.66262 40.8925 8.25C42.2562 8.75677 43.4877 9.56525 44.495 10.615C45.4914 11.6016 46.2609 12.7934 46.75 14.1075C47.3374 15.7038 47.6624 17.3848 47.7125 19.085V27.5C47.7125 33.165 47.905 33.7425 47.8225 35.915V35.9425ZM43.4225 15.4825C43.0951 14.5942 42.5788 13.7875 41.9094 13.1181C41.24 12.4487 40.4333 11.9324 39.545 11.605C38.3253 11.1822 37.0407 10.9774 35.75 11H19.25C17.9527 11.0127 16.6679 11.2547 15.455 11.715C14.5803 12.0276 13.7822 12.5227 13.1136 13.1676C12.4451 13.8124 11.9214 14.5922 11.5775 15.455C11.1781 16.6798 10.983 17.9619 11 19.25V35.75C11.0273 37.0458 11.2689 38.3281 11.715 39.545C12.0424 40.4333 12.5587 41.24 13.2281 41.9094C13.8975 42.5788 14.7042 43.0951 15.5925 43.4225C16.7658 43.854 18.0005 44.0954 19.25 44.1375H35.75C37.0473 44.1248 38.3321 43.8828 39.545 43.4225C40.4333 43.0951 41.24 42.5788 41.9094 41.9094C42.5788 41.24 43.0951 40.4333 43.4225 39.545C43.8828 38.3321 44.1248 37.0473 44.1375 35.75V19.25C44.1383 17.9514 43.8958 16.6642 43.4225 15.455V15.4825ZM27.5 38.005C26.1218 38.005 24.7571 37.7331 23.4841 37.2048C22.2111 36.6766 21.0548 35.9023 20.0815 34.9265C19.1083 33.9507 18.3371 32.7924 17.8121 31.518C17.2872 30.2436 17.0189 28.8782 17.0225 27.5C17.0225 25.4211 17.6393 23.389 18.7948 21.6609C19.9504 19.9328 21.5926 18.5863 23.5138 17.792C25.4349 16.9978 27.5485 16.7913 29.5871 17.1989C31.6256 17.6065 33.4973 18.6097 34.9654 20.0816C36.4334 21.5535 37.4318 23.4279 37.834 25.4675C38.2362 27.5071 38.0243 29.6201 37.2249 31.5392C36.4256 33.4582 35.0749 35.097 33.3437 36.248C31.6126 37.399 29.5789 38.0104 27.5 38.005ZM38.5 19.0575C37.8921 18.9932 37.3295 18.7061 36.9206 18.2517C36.5118 17.7972 36.2855 17.2076 36.2855 16.5962C36.2855 15.9849 36.5118 15.3953 36.9206 14.9408C37.3295 14.4864 37.8921 14.1993 38.5 14.135C39.1079 14.1993 39.6705 14.4864 40.0794 14.9408C40.4882 15.3953 40.7145 15.9849 40.7145 16.5962C40.7145 17.2076 40.4882 17.7972 40.0794 18.2517C39.6705 18.7061 39.1079 18.9932 38.5 19.0575Z" fill="white"/>
</svg>
