<svg width="29" height="29" viewBox="0 0 29 29" fill="none" xmlns="http://www.w3.org/2000/svg">
<path d="M15.1036 3.625C14.7956 3.62534 14.4993 3.74327 14.2754 3.95469C14.0515 4.16611 13.9167 4.45507 13.8986 4.76252C13.8806 5.06997 13.9806 5.37271 14.1783 5.60888C14.376 5.84505 14.6564 5.99683 14.9622 6.03321L15.1036 6.04167H21.7494V22.9583H9.66605V15.1042C9.66571 14.7962 9.54778 14.5 9.33636 14.276C9.12494 14.0521 8.83599 13.9173 8.52854 13.8993C8.22108 13.8812 7.91834 13.9812 7.68217 14.1789C7.446 14.3766 7.29422 14.657 7.25784 14.9628L7.24939 15.1042V22.9583H4.83272C4.52474 22.9587 4.22852 23.0766 4.00457 23.288C3.78062 23.4994 3.64585 23.7884 3.62781 24.0959C3.60976 24.4033 3.70979 24.706 3.90746 24.9422C4.10513 25.1784 4.38552 25.3302 4.69135 25.3665L4.83272 25.375H24.1661C24.474 25.3747 24.7703 25.2567 24.9942 25.0453C25.2182 24.8339 25.3529 24.5449 25.371 24.2375C25.389 23.93 25.289 23.6273 25.0913 23.3911C24.8936 23.1549 24.6133 23.0032 24.3074 22.9668L24.1661 22.9583V6.04167C24.1662 5.43197 23.936 4.84473 23.5214 4.39767C23.1068 3.95061 22.5386 3.67677 21.9306 3.63104L21.7494 3.625H15.1036ZM12.6869 13.2917C12.4489 13.2917 12.2132 13.3385 11.9933 13.4296C11.7734 13.5207 11.5736 13.6542 11.4053 13.8225C11.2369 13.9908 11.1034 14.1906 11.0124 14.4106C10.9213 14.6305 10.8744 14.8661 10.8744 15.1042C10.8744 15.3422 10.9213 15.5779 11.0124 15.7978C11.1034 16.0177 11.2369 16.2175 11.4053 16.3858C11.5736 16.5541 11.7734 16.6876 11.9933 16.7787C12.2132 16.8698 12.4489 16.9167 12.6869 16.9167C13.1676 16.9167 13.6286 16.7257 13.9685 16.3858C14.3084 16.0459 14.4994 15.5849 14.4994 15.1042C14.4994 14.6235 14.3084 14.1624 13.9685 13.8225C13.6286 13.4826 13.1676 13.2917 12.6869 13.2917ZM9.91618 5.04117C9.69873 4.82445 9.40695 4.69864 9.10009 4.68927C8.79323 4.6799 8.49432 4.78768 8.26405 4.99072C8.03378 5.19376 7.88944 5.47683 7.86032 5.78245C7.83121 6.08806 7.91951 6.3933 8.1073 6.63617L8.20759 6.74975L8.70664 7.24758H4.83272C4.52286 7.24513 4.22391 7.36182 3.99763 7.57352C3.77136 7.78522 3.63506 8.07577 3.61691 8.3851C3.59876 8.69444 3.70014 8.99892 3.9001 9.23564C4.10007 9.47235 4.38333 9.6232 4.69135 9.657L4.83272 9.66425H8.70905L8.20639 10.1681C7.99008 10.3858 7.86468 10.6776 7.85563 10.9843C7.84659 11.291 7.95458 11.5897 8.15769 11.8197C8.3608 12.0497 8.64381 12.1938 8.94929 12.2228C9.25478 12.2518 9.55985 12.1635 9.8026 11.9758L9.91739 11.8755L12.4791 9.31021C12.6869 9.10199 12.8117 8.82508 12.8299 8.53143C12.8482 8.23777 12.7586 7.94755 12.5781 7.71521L12.4778 7.60162L9.91618 5.04117Z" fill="#F8F8F8"/>
</svg>
