<svg width="1055" height="260" viewBox="0 0 1055 260" fill="none" xmlns="http://www.w3.org/2000/svg">
<path d="M20.74 167.53C16.5467 167.53 13.5433 166.907 11.73 165.66C10.03 164.413 8.95333 162.77 8.5 160.73C8.04667 158.69 7.82 156.593 7.82 154.44V61.62C7.82 59.4667 8.04667 57.4267 8.5 55.5C8.95333 53.46 10.0867 51.8167 11.9 50.57C13.7133 49.3233 16.7167 48.7 20.91 48.7H55.76C60.52 48.7 65.28 49.55 70.04 51.25C74.9133 52.95 79.39 55.6133 83.47 59.24C87.6633 62.7533 91.0067 67.1167 93.5 72.33C96.1067 77.5433 97.41 83.6633 97.41 90.69C97.41 97.6033 96.1067 103.667 93.5 108.88C91.0067 114.093 87.6633 118.457 83.47 121.97C79.39 125.37 74.9133 127.977 70.04 129.79C65.1667 131.49 60.35 132.34 55.59 132.34H33.83V154.61C33.83 156.763 33.6033 158.86 33.15 160.9C32.6967 162.827 31.5633 164.413 29.75 165.66C27.9367 166.907 24.9333 167.53 20.74 167.53ZM33.83 106.5H55.76C58.2533 106.5 60.69 105.99 63.07 104.97C65.5633 103.837 67.6033 102.08 69.19 99.7C70.89 97.32 71.74 94.26 71.74 90.52C71.74 87.3467 71.06 84.57 69.7 82.19C68.34 79.81 66.4133 77.94 63.92 76.58C61.54 75.22 58.7633 74.54 55.59 74.54H33.83V106.5ZM141.046 167.53C136.399 167.53 132.262 167.247 128.636 166.68C125.122 166.227 122.062 165.32 119.456 163.96C116.962 162.6 114.922 160.73 113.336 158.35C111.749 155.97 110.559 152.91 109.766 149.17C109.086 145.317 108.746 140.613 108.746 135.06V56.52C108.746 54.2533 108.916 52.1567 109.256 50.23C109.709 48.3033 110.842 46.7167 112.656 45.47C114.469 44.2233 117.416 43.6 121.496 43.6C125.576 43.6 128.466 44.2233 130.166 45.47C131.979 46.7167 133.112 48.3033 133.566 50.23C134.019 52.1567 134.246 54.2533 134.246 56.52V133.87C134.246 135.683 134.302 137.213 134.416 138.46C134.642 139.593 134.982 140.5 135.436 141.18C136.002 141.86 136.739 142.313 137.646 142.54C138.552 142.767 139.742 142.88 141.216 142.88C142.576 142.88 143.936 143.05 145.296 143.39C146.769 143.73 148.016 144.75 149.036 146.45C150.056 148.15 150.566 150.983 150.566 154.95C150.566 159.03 150.056 161.977 149.036 163.79C148.016 165.603 146.769 166.68 145.296 167.02C143.936 167.36 142.519 167.53 141.046 167.53ZM228.898 167.36C224.705 167.36 221.588 166.623 219.548 165.15C217.622 163.677 216.658 161.863 216.658 159.71L218.358 156.82C217.678 157.953 216.375 159.37 214.448 161.07C212.522 162.657 210.028 164.13 206.968 165.49C203.908 166.737 200.112 167.36 195.578 167.36C190.365 167.36 185.378 166.227 180.618 163.96C175.972 161.693 171.835 158.577 168.208 154.61C164.582 150.53 161.692 145.94 159.538 140.84C157.498 135.74 156.478 130.357 156.478 124.69C156.478 119.137 157.498 113.867 159.538 108.88C161.692 103.78 164.582 99.3033 168.208 95.45C171.948 91.4833 176.142 88.3667 180.788 86.1C185.435 83.8333 190.365 82.7 195.578 82.7C199.772 82.7 203.342 83.3233 206.288 84.57C209.235 85.7033 211.672 87.0633 213.598 88.65C215.638 90.2367 217.168 91.7667 218.188 93.24L216.828 90.86C216.715 88.14 217.622 86.1 219.548 84.74C221.588 83.2667 224.762 82.53 229.068 82.53C233.148 82.53 236.038 83.1533 237.738 84.4C239.552 85.6467 240.628 87.29 240.968 89.33C241.422 91.37 241.648 93.5233 241.648 95.79V154.44C241.648 156.593 241.422 158.69 240.968 160.73C240.628 162.77 239.552 164.413 237.738 165.66C236.038 166.793 233.092 167.36 228.898 167.36ZM199.318 142.03C202.265 142.03 204.928 141.293 207.308 139.82C209.802 138.233 211.728 136.137 213.088 133.53C214.562 130.923 215.298 128.033 215.298 124.86C215.298 121.573 214.562 118.683 213.088 116.19C211.615 113.583 209.632 111.543 207.138 110.07C204.645 108.483 201.925 107.69 198.978 107.69C195.692 107.69 192.745 108.483 190.138 110.07C187.645 111.657 185.605 113.753 184.018 116.36C182.545 118.967 181.808 121.913 181.808 125.2C181.808 128.26 182.545 131.093 184.018 133.7C185.605 136.193 187.702 138.233 190.308 139.82C193.028 141.293 196.032 142.03 199.318 142.03ZM268.079 167.36C263.886 167.36 260.883 166.793 259.069 165.66C257.369 164.413 256.293 162.827 255.839 160.9C255.499 158.86 255.329 156.763 255.329 154.61V94.77C255.329 92.6167 255.556 90.6333 256.009 88.82C256.463 86.8933 257.539 85.3633 259.239 84.23C261.053 83.0967 264.056 82.53 268.249 82.53C271.876 82.53 274.539 83.04 276.239 84.06C277.939 84.9667 279.016 86.1 279.469 87.46C280.036 88.82 280.319 90.1233 280.319 91.37C280.319 92.5033 280.433 93.2967 280.659 93.75L279.639 96.98C279.866 95.28 280.716 93.58 282.189 91.88C283.776 90.0667 285.703 88.48 287.969 87.12C290.349 85.6467 292.843 84.5133 295.449 83.72C298.169 82.9267 300.833 82.53 303.439 82.53C308.879 82.53 313.696 83.55 317.889 85.59C322.196 87.5167 325.823 90.35 328.769 94.09C331.716 97.83 333.926 102.25 335.399 107.35C336.986 112.337 337.779 117.833 337.779 123.84V154.78C337.779 156.933 337.553 159.03 337.099 161.07C336.759 162.997 335.683 164.527 333.869 165.66C332.169 166.793 329.223 167.36 325.029 167.36C320.723 167.36 317.663 166.793 315.849 165.66C314.149 164.413 313.073 162.827 312.619 160.9C312.166 158.86 311.939 156.763 311.939 154.61V123.84C311.939 120.44 311.373 117.55 310.239 115.17C309.106 112.79 307.406 110.977 305.139 109.73C302.873 108.37 300.096 107.69 296.809 107.69C293.523 107.69 290.689 108.37 288.309 109.73C285.929 111.09 284.059 112.96 282.699 115.34C281.453 117.72 280.829 120.553 280.829 123.84V154.78C280.829 156.933 280.603 159.03 280.149 161.07C279.809 162.997 278.733 164.527 276.919 165.66C275.219 166.793 272.273 167.36 268.079 167.36ZM393.28 169.06C385.347 169.06 378.49 167.757 372.71 165.15C367.044 162.543 362.397 159.143 358.77 154.95C355.144 150.643 352.424 145.883 350.61 140.67C348.91 135.457 348.06 130.243 348.06 125.03C348.06 116.53 349.987 108.993 353.84 102.42C357.694 95.8467 363.02 90.69 369.82 86.95C376.62 83.0967 384.44 81.17 393.28 81.17C399.854 81.17 405.52 82.2467 410.28 84.4C415.154 86.44 419.12 89.16 422.18 92.56C425.354 95.8467 427.677 99.4167 429.15 103.27C430.737 107.123 431.53 110.807 431.53 114.32C431.53 120.553 430 125.2 426.94 128.26C423.994 131.207 420.197 132.68 415.55 132.68H375.09C375.317 135.627 376.337 138.12 378.15 140.16C380.077 142.2 382.457 143.787 385.29 144.92C388.124 146.053 391.127 146.62 394.3 146.62C397.02 146.62 399.4 146.507 401.44 146.28C403.48 145.94 405.237 145.543 406.71 145.09C408.184 144.523 409.544 144.013 410.79 143.56C412.037 142.993 413.114 142.54 414.02 142.2C415.04 141.86 416.004 141.633 416.91 141.52C418.61 141.407 420.14 141.917 421.5 143.05C422.974 144.07 424.277 145.657 425.41 147.81C426.204 149.057 426.714 150.247 426.94 151.38C427.28 152.513 427.45 153.647 427.45 154.78C427.45 157.5 426.034 159.937 423.2 162.09C420.48 164.243 416.57 165.943 411.47 167.19C406.484 168.437 400.42 169.06 393.28 169.06ZM375.09 118.74H401.95C403.764 118.74 405.067 118.457 405.86 117.89C406.767 117.21 407.22 115.963 407.22 114.15C407.22 112.11 406.597 110.353 405.35 108.88C404.104 107.293 402.404 106.103 400.25 105.31C398.21 104.403 395.83 103.95 393.11 103.95C389.597 103.95 386.48 104.63 383.76 105.99C381.04 107.35 378.887 109.163 377.3 111.43C375.827 113.697 375.09 116.133 375.09 118.74ZM428.149 202.38C426.109 202.38 424.126 202.153 422.199 201.7C420.272 201.36 418.742 200.283 417.609 198.47C416.362 196.77 415.739 193.88 415.739 189.8C415.739 185.947 416.362 183.113 417.609 181.3C418.742 179.6 420.329 178.523 422.369 178.07C424.296 177.617 426.336 177.39 428.489 177.39C429.962 177.39 431.549 177.22 433.249 176.88C434.949 176.54 436.536 175.803 438.009 174.67C439.482 173.65 440.672 172.12 441.579 170.08C442.599 168.04 443.109 165.377 443.109 162.09V93.92C443.109 91.9933 443.279 90.1233 443.619 88.31C444.072 86.4967 445.206 85.0233 447.019 83.89C448.832 82.7567 451.722 82.19 455.689 82.19C459.769 82.19 462.659 82.8133 464.359 84.06C466.172 85.3067 467.249 86.8933 467.589 88.82C467.929 90.7467 468.099 92.7867 468.099 94.94V162.77C468.099 169.343 466.909 175.067 464.529 179.94C462.262 184.927 459.202 189.063 455.349 192.35C451.496 195.75 447.189 198.243 442.429 199.83C437.782 201.53 433.022 202.38 428.149 202.38ZM455.349 70.12C450.476 70.12 447.132 69.2133 445.319 67.4C443.506 65.4733 442.599 61.96 442.599 56.86C442.599 51.9867 443.506 48.6433 445.319 46.83C447.246 45.0167 450.702 44.11 455.689 44.11C460.676 44.11 464.019 45.0167 465.719 46.83C467.532 48.6433 468.439 52.0433 468.439 57.03C468.439 62.0167 467.532 65.4733 465.719 67.4C463.906 69.2133 460.449 70.12 455.349 70.12ZM551.965 167.36C547.771 167.36 544.655 166.623 542.615 165.15C540.688 163.677 539.725 161.863 539.725 159.71L541.425 156.82C540.745 157.953 539.441 159.37 537.515 161.07C535.588 162.657 533.095 164.13 530.035 165.49C526.975 166.737 523.178 167.36 518.645 167.36C513.431 167.36 508.445 166.227 503.685 163.96C499.038 161.693 494.901 158.577 491.275 154.61C487.648 150.53 484.758 145.94 482.605 140.84C480.565 135.74 479.545 130.357 479.545 124.69C479.545 119.137 480.565 113.867 482.605 108.88C484.758 103.78 487.648 99.3033 491.275 95.45C495.015 91.4833 499.208 88.3667 503.855 86.1C508.501 83.8333 513.431 82.7 518.645 82.7C522.838 82.7 526.408 83.3233 529.355 84.57C532.301 85.7033 534.738 87.0633 536.665 88.65C538.705 90.2367 540.235 91.7667 541.255 93.24L539.895 90.86C539.781 88.14 540.688 86.1 542.615 84.74C544.655 83.2667 547.828 82.53 552.135 82.53C556.215 82.53 559.105 83.1533 560.805 84.4C562.618 85.6467 563.695 87.29 564.035 89.33C564.488 91.37 564.715 93.5233 564.715 95.79V154.44C564.715 156.593 564.488 158.69 564.035 160.73C563.695 162.77 562.618 164.413 560.805 165.66C559.105 166.793 556.158 167.36 551.965 167.36ZM522.385 142.03C525.331 142.03 527.995 141.293 530.375 139.82C532.868 138.233 534.795 136.137 536.155 133.53C537.628 130.923 538.365 128.033 538.365 124.86C538.365 121.573 537.628 118.683 536.155 116.19C534.681 113.583 532.698 111.543 530.205 110.07C527.711 108.483 524.991 107.69 522.045 107.69C518.758 107.69 515.811 108.483 513.205 110.07C510.711 111.657 508.671 113.753 507.085 116.36C505.611 118.967 504.875 121.913 504.875 125.2C504.875 128.26 505.611 131.093 507.085 133.7C508.671 136.193 510.768 138.233 513.375 139.82C516.095 141.293 519.098 142.03 522.385 142.03ZM590.806 167.53C586.726 167.53 583.779 166.907 581.966 165.66C580.152 164.413 579.076 162.827 578.736 160.9C578.396 158.973 578.226 156.877 578.226 154.61V95.11C578.226 92.8433 578.396 90.8033 578.736 88.99C579.189 87.0633 580.322 85.5333 582.136 84.4C583.949 83.1533 586.952 82.53 591.146 82.53C595.339 82.53 598.399 83.38 600.326 85.08C602.252 86.6667 603.216 89.33 603.216 93.07L601.006 94.94C601.232 94.3733 601.912 93.41 603.046 92.05C604.179 90.69 605.652 89.2733 607.466 87.8C609.279 86.3267 611.376 85.08 613.756 84.06C616.249 82.9267 618.912 82.36 621.746 82.36C625.486 82.36 628.829 82.9267 631.776 84.06C634.836 85.08 637.556 86.6667 639.936 88.82C642.429 90.86 644.582 93.4667 646.396 96.64C647.982 94.3733 649.909 92.1633 652.176 90.01C654.442 87.8567 657.106 86.0433 660.166 84.57C663.339 83.0967 666.852 82.36 670.706 82.36C677.279 82.36 682.832 84.06 687.366 87.46C692.012 90.7467 695.526 95.5067 697.906 101.74C700.286 107.973 701.476 115.51 701.476 124.35V154.78C701.476 156.933 701.249 159.03 700.796 161.07C700.456 162.997 699.379 164.583 697.566 165.83C695.752 166.963 692.749 167.53 688.556 167.53C684.362 167.53 681.359 166.907 679.546 165.66C677.846 164.413 676.769 162.827 676.316 160.9C675.976 158.86 675.806 156.763 675.806 154.61V124.18C675.806 120.667 675.409 117.72 674.616 115.34C673.822 112.96 672.576 111.147 670.876 109.9C669.289 108.54 667.249 107.86 664.756 107.86C662.149 107.86 659.939 108.483 658.126 109.73C656.312 110.863 654.952 112.677 654.046 115.17C653.139 117.55 652.686 120.61 652.686 124.35V154.78C652.686 157.047 652.402 159.2 651.836 161.24C651.269 163.167 650.022 164.753 648.096 166C646.282 167.133 643.336 167.643 639.256 167.53C635.176 167.417 632.286 166.737 630.586 165.49C628.886 164.243 627.866 162.657 627.526 160.73C627.186 158.69 627.016 156.65 627.016 154.61V124.18C627.016 120.667 626.619 117.72 625.826 115.34C625.032 112.847 623.842 110.977 622.256 109.73C620.669 108.483 618.572 107.86 615.966 107.86C613.132 107.86 610.809 108.597 608.996 110.07C607.182 111.543 605.822 113.527 604.916 116.02C604.122 118.4 603.726 121.12 603.726 124.18V154.78C603.726 157.047 603.499 159.143 603.046 161.07C602.706 162.997 601.629 164.583 599.816 165.83C598.002 166.963 594.999 167.53 590.806 167.53ZM757.021 169.06C749.087 169.06 742.231 167.757 736.451 165.15C730.784 162.543 726.137 159.143 722.511 154.95C718.884 150.643 716.164 145.883 714.351 140.67C712.651 135.457 711.801 130.243 711.801 125.03C711.801 116.53 713.727 108.993 717.581 102.42C721.434 95.8467 726.761 90.69 733.561 86.95C740.361 83.0967 748.181 81.17 757.021 81.17C763.594 81.17 769.261 82.2467 774.021 84.4C778.894 86.44 782.861 89.16 785.921 92.56C789.094 95.8467 791.417 99.4167 792.891 103.27C794.477 107.123 795.271 110.807 795.271 114.32C795.271 120.553 793.741 125.2 790.681 128.26C787.734 131.207 783.937 132.68 779.291 132.68H738.831C739.057 135.627 740.077 138.12 741.891 140.16C743.817 142.2 746.197 143.787 749.031 144.92C751.864 146.053 754.867 146.62 758.041 146.62C760.761 146.62 763.141 146.507 765.181 146.28C767.221 145.94 768.977 145.543 770.451 145.09C771.924 144.523 773.284 144.013 774.531 143.56C775.777 142.993 776.854 142.54 777.761 142.2C778.781 141.86 779.744 141.633 780.651 141.52C782.351 141.407 783.881 141.917 785.241 143.05C786.714 144.07 788.017 145.657 789.151 147.81C789.944 149.057 790.454 150.247 790.681 151.38C791.021 152.513 791.191 153.647 791.191 154.78C791.191 157.5 789.774 159.937 786.941 162.09C784.221 164.243 780.311 165.943 775.211 167.19C770.224 168.437 764.161 169.06 757.021 169.06ZM738.831 118.74H765.691C767.504 118.74 768.807 118.457 769.601 117.89C770.507 117.21 770.961 115.963 770.961 114.15C770.961 112.11 770.337 110.353 769.091 108.88C767.844 107.293 766.144 106.103 763.991 105.31C761.951 104.403 759.571 103.95 756.851 103.95C753.337 103.95 750.221 104.63 747.501 105.99C744.781 107.35 742.627 109.163 741.041 111.43C739.567 113.697 738.831 116.133 738.831 118.74ZM818.919 167.36C814.726 167.36 811.723 166.793 809.909 165.66C808.209 164.413 807.133 162.827 806.679 160.9C806.339 158.86 806.169 156.763 806.169 154.61V94.77C806.169 92.6167 806.396 90.6333 806.849 88.82C807.303 86.8933 808.379 85.3633 810.079 84.23C811.893 83.0967 814.896 82.53 819.089 82.53C822.716 82.53 825.379 83.04 827.079 84.06C828.779 84.9667 829.856 86.1 830.309 87.46C830.876 88.82 831.159 90.1233 831.159 91.37C831.159 92.5033 831.273 93.2967 831.499 93.75L830.479 96.98C830.706 95.28 831.556 93.58 833.029 91.88C834.616 90.0667 836.543 88.48 838.809 87.12C841.189 85.6467 843.683 84.5133 846.289 83.72C849.009 82.9267 851.673 82.53 854.279 82.53C859.719 82.53 864.536 83.55 868.729 85.59C873.036 87.5167 876.663 90.35 879.609 94.09C882.556 97.83 884.766 102.25 886.239 107.35C887.826 112.337 888.619 117.833 888.619 123.84V154.78C888.619 156.933 888.393 159.03 887.939 161.07C887.599 162.997 886.523 164.527 884.709 165.66C883.009 166.793 880.063 167.36 875.869 167.36C871.563 167.36 868.503 166.793 866.689 165.66C864.989 164.413 863.913 162.827 863.459 160.9C863.006 158.86 862.779 156.763 862.779 154.61V123.84C862.779 120.44 862.213 117.55 861.079 115.17C859.946 112.79 858.246 110.977 855.979 109.73C853.713 108.37 850.936 107.69 847.649 107.69C844.363 107.69 841.529 108.37 839.149 109.73C836.769 111.09 834.899 112.96 833.539 115.34C832.293 117.72 831.669 120.553 831.669 123.84V154.78C831.669 156.933 831.443 159.03 830.989 161.07C830.649 162.997 829.573 164.527 827.759 165.66C826.059 166.793 823.113 167.36 818.919 167.36ZM943.99 167.53C938.21 167.53 933.223 166.907 929.03 165.66C924.95 164.413 921.55 162.487 918.83 159.88C916.11 157.273 914.07 153.987 912.71 150.02C911.463 145.94 910.84 141.123 910.84 135.57V66.55C910.84 64.2833 911.01 62.2433 911.35 60.43C911.803 58.6167 912.937 57.1433 914.75 56.01C916.563 54.7633 919.51 54.14 923.59 54.14C927.67 54.14 930.617 54.7633 932.43 56.01C934.243 57.2567 935.32 58.8433 935.66 60.77C936.113 62.6967 936.34 64.7933 936.34 67.06V134.55C936.34 136.363 936.453 137.893 936.68 139.14C937.02 140.273 937.473 141.123 938.04 141.69C938.607 142.257 939.4 142.653 940.42 142.88C941.44 143.107 942.687 143.22 944.16 143.22C946.653 143.22 948.863 143.447 950.79 143.9C952.717 144.353 954.19 145.373 955.21 146.96C956.343 148.547 956.91 151.21 956.91 154.95C956.91 159.03 956.287 161.977 955.04 163.79C953.793 165.603 952.15 166.68 950.11 167.02C948.183 167.36 946.143 167.53 943.99 167.53ZM905.57 83.89H924.27L947.73 83.21C949.883 83.21 951.923 83.4367 953.85 83.89C955.777 84.23 957.363 85.3067 958.61 87.12C959.857 88.9333 960.48 91.9367 960.48 96.13C960.48 99.9833 959.857 102.817 958.61 104.63C957.477 106.443 955.947 107.633 954.02 108.2C952.093 108.653 949.997 108.88 947.73 108.88L925.46 108.37H904.89C901.603 108.257 899.28 107.293 897.92 105.48C896.673 103.553 896.05 100.38 896.05 95.96C896.05 91.88 896.843 88.8767 898.43 86.95C900.017 84.91 902.397 83.89 905.57 83.89ZM1012.35 169.06C1004.42 169.06 997.563 167.757 991.783 165.15C986.116 162.543 981.469 159.143 977.843 154.95C974.216 150.643 971.496 145.883 969.683 140.67C967.983 135.457 967.133 130.243 967.133 125.03C967.133 116.53 969.059 108.993 972.913 102.42C976.766 95.8467 982.093 90.69 988.893 86.95C995.693 83.0967 1003.51 81.17 1012.35 81.17C1018.93 81.17 1024.59 82.2467 1029.35 84.4C1034.23 86.44 1038.19 89.16 1041.25 92.56C1044.43 95.8467 1046.75 99.4167 1048.22 103.27C1049.81 107.123 1050.6 110.807 1050.6 114.32C1050.6 120.553 1049.07 125.2 1046.01 128.26C1043.07 131.207 1039.27 132.68 1034.62 132.68H994.163C994.389 135.627 995.409 138.12 997.223 140.16C999.149 142.2 1001.53 143.787 1004.36 144.92C1007.2 146.053 1010.2 146.62 1013.37 146.62C1016.09 146.62 1018.47 146.507 1020.51 146.28C1022.55 145.94 1024.31 145.543 1025.78 145.09C1027.26 144.523 1028.62 144.013 1029.86 143.56C1031.11 142.993 1032.19 142.54 1033.09 142.2C1034.11 141.86 1035.08 141.633 1035.98 141.52C1037.68 141.407 1039.21 141.917 1040.57 143.05C1042.05 144.07 1043.35 145.657 1044.48 147.81C1045.28 149.057 1045.79 150.247 1046.01 151.38C1046.35 152.513 1046.52 153.647 1046.52 154.78C1046.52 157.5 1045.11 159.937 1042.27 162.09C1039.55 164.243 1035.64 165.943 1030.54 167.19C1025.56 168.437 1019.49 169.06 1012.35 169.06ZM994.163 118.74H1021.02C1022.84 118.74 1024.14 118.457 1024.93 117.89C1025.84 117.21 1026.29 115.963 1026.29 114.15C1026.29 112.11 1025.67 110.353 1024.42 108.88C1023.18 107.293 1021.48 106.103 1019.32 105.31C1017.28 104.403 1014.9 103.95 1012.18 103.95C1008.67 103.95 1005.55 104.63 1002.83 105.99C1000.11 107.35 997.959 109.163 996.373 111.43C994.899 113.697 994.163 116.133 994.163 118.74Z" fill="white"/>
<path d="M20.74 167.53C16.5467 167.53 13.5433 166.907 11.73 165.66C10.03 164.413 8.95333 162.77 8.5 160.73C8.04667 158.69 7.82 156.593 7.82 154.44V61.62C7.82 59.4667 8.04667 57.4267 8.5 55.5C8.95333 53.46 10.0867 51.8167 11.9 50.57C13.7133 49.3233 16.7167 48.7 20.91 48.7H55.76C60.52 48.7 65.28 49.55 70.04 51.25C74.9133 52.95 79.39 55.6133 83.47 59.24C87.6633 62.7533 91.0067 67.1167 93.5 72.33C96.1067 77.5433 97.41 83.6633 97.41 90.69C97.41 97.6033 96.1067 103.667 93.5 108.88C91.0067 114.093 87.6633 118.457 83.47 121.97C79.39 125.37 74.9133 127.977 70.04 129.79C65.1667 131.49 60.35 132.34 55.59 132.34H33.83V154.61C33.83 156.763 33.6033 158.86 33.15 160.9C32.6967 162.827 31.5633 164.413 29.75 165.66C27.9367 166.907 24.9333 167.53 20.74 167.53ZM33.83 106.5H55.76C58.2533 106.5 60.69 105.99 63.07 104.97C65.5633 103.837 67.6033 102.08 69.19 99.7C70.89 97.32 71.74 94.26 71.74 90.52C71.74 87.3467 71.06 84.57 69.7 82.19C68.34 79.81 66.4133 77.94 63.92 76.58C61.54 75.22 58.7633 74.54 55.59 74.54H33.83V106.5ZM141.046 167.53C136.399 167.53 132.262 167.247 128.636 166.68C125.122 166.227 122.062 165.32 119.456 163.96C116.962 162.6 114.922 160.73 113.336 158.35C111.749 155.97 110.559 152.91 109.766 149.17C109.086 145.317 108.746 140.613 108.746 135.06V56.52C108.746 54.2533 108.916 52.1567 109.256 50.23C109.709 48.3033 110.842 46.7167 112.656 45.47C114.469 44.2233 117.416 43.6 121.496 43.6C125.576 43.6 128.466 44.2233 130.166 45.47C131.979 46.7167 133.112 48.3033 133.566 50.23C134.019 52.1567 134.246 54.2533 134.246 56.52V133.87C134.246 135.683 134.302 137.213 134.416 138.46C134.642 139.593 134.982 140.5 135.436 141.18C136.002 141.86 136.739 142.313 137.646 142.54C138.552 142.767 139.742 142.88 141.216 142.88C142.576 142.88 143.936 143.05 145.296 143.39C146.769 143.73 148.016 144.75 149.036 146.45C150.056 148.15 150.566 150.983 150.566 154.95C150.566 159.03 150.056 161.977 149.036 163.79C148.016 165.603 146.769 166.68 145.296 167.02C143.936 167.36 142.519 167.53 141.046 167.53ZM228.898 167.36C224.705 167.36 221.588 166.623 219.548 165.15C217.622 163.677 216.658 161.863 216.658 159.71L218.358 156.82C217.678 157.953 216.375 159.37 214.448 161.07C212.522 162.657 210.028 164.13 206.968 165.49C203.908 166.737 200.112 167.36 195.578 167.36C190.365 167.36 185.378 166.227 180.618 163.96C175.972 161.693 171.835 158.577 168.208 154.61C164.582 150.53 161.692 145.94 159.538 140.84C157.498 135.74 156.478 130.357 156.478 124.69C156.478 119.137 157.498 113.867 159.538 108.88C161.692 103.78 164.582 99.3033 168.208 95.45C171.948 91.4833 176.142 88.3667 180.788 86.1C185.435 83.8333 190.365 82.7 195.578 82.7C199.772 82.7 203.342 83.3233 206.288 84.57C209.235 85.7033 211.672 87.0633 213.598 88.65C215.638 90.2367 217.168 91.7667 218.188 93.24L216.828 90.86C216.715 88.14 217.622 86.1 219.548 84.74C221.588 83.2667 224.762 82.53 229.068 82.53C233.148 82.53 236.038 83.1533 237.738 84.4C239.552 85.6467 240.628 87.29 240.968 89.33C241.422 91.37 241.648 93.5233 241.648 95.79V154.44C241.648 156.593 241.422 158.69 240.968 160.73C240.628 162.77 239.552 164.413 237.738 165.66C236.038 166.793 233.092 167.36 228.898 167.36ZM199.318 142.03C202.265 142.03 204.928 141.293 207.308 139.82C209.802 138.233 211.728 136.137 213.088 133.53C214.562 130.923 215.298 128.033 215.298 124.86C215.298 121.573 214.562 118.683 213.088 116.19C211.615 113.583 209.632 111.543 207.138 110.07C204.645 108.483 201.925 107.69 198.978 107.69C195.692 107.69 192.745 108.483 190.138 110.07C187.645 111.657 185.605 113.753 184.018 116.36C182.545 118.967 181.808 121.913 181.808 125.2C181.808 128.26 182.545 131.093 184.018 133.7C185.605 136.193 187.702 138.233 190.308 139.82C193.028 141.293 196.032 142.03 199.318 142.03ZM268.079 167.36C263.886 167.36 260.883 166.793 259.069 165.66C257.369 164.413 256.293 162.827 255.839 160.9C255.499 158.86 255.329 156.763 255.329 154.61V94.77C255.329 92.6167 255.556 90.6333 256.009 88.82C256.463 86.8933 257.539 85.3633 259.239 84.23C261.053 83.0967 264.056 82.53 268.249 82.53C271.876 82.53 274.539 83.04 276.239 84.06C277.939 84.9667 279.016 86.1 279.469 87.46C280.036 88.82 280.319 90.1233 280.319 91.37C280.319 92.5033 280.433 93.2967 280.659 93.75L279.639 96.98C279.866 95.28 280.716 93.58 282.189 91.88C283.776 90.0667 285.703 88.48 287.969 87.12C290.349 85.6467 292.843 84.5133 295.449 83.72C298.169 82.9267 300.833 82.53 303.439 82.53C308.879 82.53 313.696 83.55 317.889 85.59C322.196 87.5167 325.823 90.35 328.769 94.09C331.716 97.83 333.926 102.25 335.399 107.35C336.986 112.337 337.779 117.833 337.779 123.84V154.78C337.779 156.933 337.553 159.03 337.099 161.07C336.759 162.997 335.683 164.527 333.869 165.66C332.169 166.793 329.223 167.36 325.029 167.36C320.723 167.36 317.663 166.793 315.849 165.66C314.149 164.413 313.073 162.827 312.619 160.9C312.166 158.86 311.939 156.763 311.939 154.61V123.84C311.939 120.44 311.373 117.55 310.239 115.17C309.106 112.79 307.406 110.977 305.139 109.73C302.873 108.37 300.096 107.69 296.809 107.69C293.523 107.69 290.689 108.37 288.309 109.73C285.929 111.09 284.059 112.96 282.699 115.34C281.453 117.72 280.829 120.553 280.829 123.84V154.78C280.829 156.933 280.603 159.03 280.149 161.07C279.809 162.997 278.733 164.527 276.919 165.66C275.219 166.793 272.273 167.36 268.079 167.36ZM393.28 169.06C385.347 169.06 378.49 167.757 372.71 165.15C367.044 162.543 362.397 159.143 358.77 154.95C355.144 150.643 352.424 145.883 350.61 140.67C348.91 135.457 348.06 130.243 348.06 125.03C348.06 116.53 349.987 108.993 353.84 102.42C357.694 95.8467 363.02 90.69 369.82 86.95C376.62 83.0967 384.44 81.17 393.28 81.17C399.854 81.17 405.52 82.2467 410.28 84.4C415.154 86.44 419.12 89.16 422.18 92.56C425.354 95.8467 427.677 99.4167 429.15 103.27C430.737 107.123 431.53 110.807 431.53 114.32C431.53 120.553 430 125.2 426.94 128.26C423.994 131.207 420.197 132.68 415.55 132.68H375.09C375.317 135.627 376.337 138.12 378.15 140.16C380.077 142.2 382.457 143.787 385.29 144.92C388.124 146.053 391.127 146.62 394.3 146.62C397.02 146.62 399.4 146.507 401.44 146.28C403.48 145.94 405.237 145.543 406.71 145.09C408.184 144.523 409.544 144.013 410.79 143.56C412.037 142.993 413.114 142.54 414.02 142.2C415.04 141.86 416.004 141.633 416.91 141.52C418.61 141.407 420.14 141.917 421.5 143.05C422.974 144.07 424.277 145.657 425.41 147.81C426.204 149.057 426.714 150.247 426.94 151.38C427.28 152.513 427.45 153.647 427.45 154.78C427.45 157.5 426.034 159.937 423.2 162.09C420.48 164.243 416.57 165.943 411.47 167.19C406.484 168.437 400.42 169.06 393.28 169.06ZM375.09 118.74H401.95C403.764 118.74 405.067 118.457 405.86 117.89C406.767 117.21 407.22 115.963 407.22 114.15C407.22 112.11 406.597 110.353 405.35 108.88C404.104 107.293 402.404 106.103 400.25 105.31C398.21 104.403 395.83 103.95 393.11 103.95C389.597 103.95 386.48 104.63 383.76 105.99C381.04 107.35 378.887 109.163 377.3 111.43C375.827 113.697 375.09 116.133 375.09 118.74ZM428.149 202.38C426.109 202.38 424.126 202.153 422.199 201.7C420.272 201.36 418.742 200.283 417.609 198.47C416.362 196.77 415.739 193.88 415.739 189.8C415.739 185.947 416.362 183.113 417.609 181.3C418.742 179.6 420.329 178.523 422.369 178.07C424.296 177.617 426.336 177.39 428.489 177.39C429.962 177.39 431.549 177.22 433.249 176.88C434.949 176.54 436.536 175.803 438.009 174.67C439.482 173.65 440.672 172.12 441.579 170.08C442.599 168.04 443.109 165.377 443.109 162.09V93.92C443.109 91.9933 443.279 90.1233 443.619 88.31C444.072 86.4967 445.206 85.0233 447.019 83.89C448.832 82.7567 451.722 82.19 455.689 82.19C459.769 82.19 462.659 82.8133 464.359 84.06C466.172 85.3067 467.249 86.8933 467.589 88.82C467.929 90.7467 468.099 92.7867 468.099 94.94V162.77C468.099 169.343 466.909 175.067 464.529 179.94C462.262 184.927 459.202 189.063 455.349 192.35C451.496 195.75 447.189 198.243 442.429 199.83C437.782 201.53 433.022 202.38 428.149 202.38ZM455.349 70.12C450.476 70.12 447.132 69.2133 445.319 67.4C443.506 65.4733 442.599 61.96 442.599 56.86C442.599 51.9867 443.506 48.6433 445.319 46.83C447.246 45.0167 450.702 44.11 455.689 44.11C460.676 44.11 464.019 45.0167 465.719 46.83C467.532 48.6433 468.439 52.0433 468.439 57.03C468.439 62.0167 467.532 65.4733 465.719 67.4C463.906 69.2133 460.449 70.12 455.349 70.12ZM551.965 167.36C547.771 167.36 544.655 166.623 542.615 165.15C540.688 163.677 539.725 161.863 539.725 159.71L541.425 156.82C540.745 157.953 539.441 159.37 537.515 161.07C535.588 162.657 533.095 164.13 530.035 165.49C526.975 166.737 523.178 167.36 518.645 167.36C513.431 167.36 508.445 166.227 503.685 163.96C499.038 161.693 494.901 158.577 491.275 154.61C487.648 150.53 484.758 145.94 482.605 140.84C480.565 135.74 479.545 130.357 479.545 124.69C479.545 119.137 480.565 113.867 482.605 108.88C484.758 103.78 487.648 99.3033 491.275 95.45C495.015 91.4833 499.208 88.3667 503.855 86.1C508.501 83.8333 513.431 82.7 518.645 82.7C522.838 82.7 526.408 83.3233 529.355 84.57C532.301 85.7033 534.738 87.0633 536.665 88.65C538.705 90.2367 540.235 91.7667 541.255 93.24L539.895 90.86C539.781 88.14 540.688 86.1 542.615 84.74C544.655 83.2667 547.828 82.53 552.135 82.53C556.215 82.53 559.105 83.1533 560.805 84.4C562.618 85.6467 563.695 87.29 564.035 89.33C564.488 91.37 564.715 93.5233 564.715 95.79V154.44C564.715 156.593 564.488 158.69 564.035 160.73C563.695 162.77 562.618 164.413 560.805 165.66C559.105 166.793 556.158 167.36 551.965 167.36ZM522.385 142.03C525.331 142.03 527.995 141.293 530.375 139.82C532.868 138.233 534.795 136.137 536.155 133.53C537.628 130.923 538.365 128.033 538.365 124.86C538.365 121.573 537.628 118.683 536.155 116.19C534.681 113.583 532.698 111.543 530.205 110.07C527.711 108.483 524.991 107.69 522.045 107.69C518.758 107.69 515.811 108.483 513.205 110.07C510.711 111.657 508.671 113.753 507.085 116.36C505.611 118.967 504.875 121.913 504.875 125.2C504.875 128.26 505.611 131.093 507.085 133.7C508.671 136.193 510.768 138.233 513.375 139.82C516.095 141.293 519.098 142.03 522.385 142.03ZM590.806 167.53C586.726 167.53 583.779 166.907 581.966 165.66C580.152 164.413 579.076 162.827 578.736 160.9C578.396 158.973 578.226 156.877 578.226 154.61V95.11C578.226 92.8433 578.396 90.8033 578.736 88.99C579.189 87.0633 580.322 85.5333 582.136 84.4C583.949 83.1533 586.952 82.53 591.146 82.53C595.339 82.53 598.399 83.38 600.326 85.08C602.252 86.6667 603.216 89.33 603.216 93.07L601.006 94.94C601.232 94.3733 601.912 93.41 603.046 92.05C604.179 90.69 605.652 89.2733 607.466 87.8C609.279 86.3267 611.376 85.08 613.756 84.06C616.249 82.9267 618.912 82.36 621.746 82.36C625.486 82.36 628.829 82.9267 631.776 84.06C634.836 85.08 637.556 86.6667 639.936 88.82C642.429 90.86 644.582 93.4667 646.396 96.64C647.982 94.3733 649.909 92.1633 652.176 90.01C654.442 87.8567 657.106 86.0433 660.166 84.57C663.339 83.0967 666.852 82.36 670.706 82.36C677.279 82.36 682.832 84.06 687.366 87.46C692.012 90.7467 695.526 95.5067 697.906 101.74C700.286 107.973 701.476 115.51 701.476 124.35V154.78C701.476 156.933 701.249 159.03 700.796 161.07C700.456 162.997 699.379 164.583 697.566 165.83C695.752 166.963 692.749 167.53 688.556 167.53C684.362 167.53 681.359 166.907 679.546 165.66C677.846 164.413 676.769 162.827 676.316 160.9C675.976 158.86 675.806 156.763 675.806 154.61V124.18C675.806 120.667 675.409 117.72 674.616 115.34C673.822 112.96 672.576 111.147 670.876 109.9C669.289 108.54 667.249 107.86 664.756 107.86C662.149 107.86 659.939 108.483 658.126 109.73C656.312 110.863 654.952 112.677 654.046 115.17C653.139 117.55 652.686 120.61 652.686 124.35V154.78C652.686 157.047 652.402 159.2 651.836 161.24C651.269 163.167 650.022 164.753 648.096 166C646.282 167.133 643.336 167.643 639.256 167.53C635.176 167.417 632.286 166.737 630.586 165.49C628.886 164.243 627.866 162.657 627.526 160.73C627.186 158.69 627.016 156.65 627.016 154.61V124.18C627.016 120.667 626.619 117.72 625.826 115.34C625.032 112.847 623.842 110.977 622.256 109.73C620.669 108.483 618.572 107.86 615.966 107.86C613.132 107.86 610.809 108.597 608.996 110.07C607.182 111.543 605.822 113.527 604.916 116.02C604.122 118.4 603.726 121.12 603.726 124.18V154.78C603.726 157.047 603.499 159.143 603.046 161.07C602.706 162.997 601.629 164.583 599.816 165.83C598.002 166.963 594.999 167.53 590.806 167.53ZM757.021 169.06C749.087 169.06 742.231 167.757 736.451 165.15C730.784 162.543 726.137 159.143 722.511 154.95C718.884 150.643 716.164 145.883 714.351 140.67C712.651 135.457 711.801 130.243 711.801 125.03C711.801 116.53 713.727 108.993 717.581 102.42C721.434 95.8467 726.761 90.69 733.561 86.95C740.361 83.0967 748.181 81.17 757.021 81.17C763.594 81.17 769.261 82.2467 774.021 84.4C778.894 86.44 782.861 89.16 785.921 92.56C789.094 95.8467 791.417 99.4167 792.891 103.27C794.477 107.123 795.271 110.807 795.271 114.32C795.271 120.553 793.741 125.2 790.681 128.26C787.734 131.207 783.937 132.68 779.291 132.68H738.831C739.057 135.627 740.077 138.12 741.891 140.16C743.817 142.2 746.197 143.787 749.031 144.92C751.864 146.053 754.867 146.62 758.041 146.62C760.761 146.62 763.141 146.507 765.181 146.28C767.221 145.94 768.977 145.543 770.451 145.09C771.924 144.523 773.284 144.013 774.531 143.56C775.777 142.993 776.854 142.54 777.761 142.2C778.781 141.86 779.744 141.633 780.651 141.52C782.351 141.407 783.881 141.917 785.241 143.05C786.714 144.07 788.017 145.657 789.151 147.81C789.944 149.057 790.454 150.247 790.681 151.38C791.021 152.513 791.191 153.647 791.191 154.78C791.191 157.5 789.774 159.937 786.941 162.09C784.221 164.243 780.311 165.943 775.211 167.19C770.224 168.437 764.161 169.06 757.021 169.06ZM738.831 118.74H765.691C767.504 118.74 768.807 118.457 769.601 117.89C770.507 117.21 770.961 115.963 770.961 114.15C770.961 112.11 770.337 110.353 769.091 108.88C767.844 107.293 766.144 106.103 763.991 105.31C761.951 104.403 759.571 103.95 756.851 103.95C753.337 103.95 750.221 104.63 747.501 105.99C744.781 107.35 742.627 109.163 741.041 111.43C739.567 113.697 738.831 116.133 738.831 118.74ZM818.919 167.36C814.726 167.36 811.723 166.793 809.909 165.66C808.209 164.413 807.133 162.827 806.679 160.9C806.339 158.86 806.169 156.763 806.169 154.61V94.77C806.169 92.6167 806.396 90.6333 806.849 88.82C807.303 86.8933 808.379 85.3633 810.079 84.23C811.893 83.0967 814.896 82.53 819.089 82.53C822.716 82.53 825.379 83.04 827.079 84.06C828.779 84.9667 829.856 86.1 830.309 87.46C830.876 88.82 831.159 90.1233 831.159 91.37C831.159 92.5033 831.273 93.2967 831.499 93.75L830.479 96.98C830.706 95.28 831.556 93.58 833.029 91.88C834.616 90.0667 836.543 88.48 838.809 87.12C841.189 85.6467 843.683 84.5133 846.289 83.72C849.009 82.9267 851.673 82.53 854.279 82.53C859.719 82.53 864.536 83.55 868.729 85.59C873.036 87.5167 876.663 90.35 879.609 94.09C882.556 97.83 884.766 102.25 886.239 107.35C887.826 112.337 888.619 117.833 888.619 123.84V154.78C888.619 156.933 888.393 159.03 887.939 161.07C887.599 162.997 886.523 164.527 884.709 165.66C883.009 166.793 880.063 167.36 875.869 167.36C871.563 167.36 868.503 166.793 866.689 165.66C864.989 164.413 863.913 162.827 863.459 160.9C863.006 158.86 862.779 156.763 862.779 154.61V123.84C862.779 120.44 862.213 117.55 861.079 115.17C859.946 112.79 858.246 110.977 855.979 109.73C853.713 108.37 850.936 107.69 847.649 107.69C844.363 107.69 841.529 108.37 839.149 109.73C836.769 111.09 834.899 112.96 833.539 115.34C832.293 117.72 831.669 120.553 831.669 123.84V154.78C831.669 156.933 831.443 159.03 830.989 161.07C830.649 162.997 829.573 164.527 827.759 165.66C826.059 166.793 823.113 167.36 818.919 167.36ZM943.99 167.53C938.21 167.53 933.223 166.907 929.03 165.66C924.95 164.413 921.55 162.487 918.83 159.88C916.11 157.273 914.07 153.987 912.71 150.02C911.463 145.94 910.84 141.123 910.84 135.57V66.55C910.84 64.2833 911.01 62.2433 911.35 60.43C911.803 58.6167 912.937 57.1433 914.75 56.01C916.563 54.7633 919.51 54.14 923.59 54.14C927.67 54.14 930.617 54.7633 932.43 56.01C934.243 57.2567 935.32 58.8433 935.66 60.77C936.113 62.6967 936.34 64.7933 936.34 67.06V134.55C936.34 136.363 936.453 137.893 936.68 139.14C937.02 140.273 937.473 141.123 938.04 141.69C938.607 142.257 939.4 142.653 940.42 142.88C941.44 143.107 942.687 143.22 944.16 143.22C946.653 143.22 948.863 143.447 950.79 143.9C952.717 144.353 954.19 145.373 955.21 146.96C956.343 148.547 956.91 151.21 956.91 154.95C956.91 159.03 956.287 161.977 955.04 163.79C953.793 165.603 952.15 166.68 950.11 167.02C948.183 167.36 946.143 167.53 943.99 167.53ZM905.57 83.89H924.27L947.73 83.21C949.883 83.21 951.923 83.4367 953.85 83.89C955.777 84.23 957.363 85.3067 958.61 87.12C959.857 88.9333 960.48 91.9367 960.48 96.13C960.48 99.9833 959.857 102.817 958.61 104.63C957.477 106.443 955.947 107.633 954.02 108.2C952.093 108.653 949.997 108.88 947.73 108.88L925.46 108.37H904.89C901.603 108.257 899.28 107.293 897.92 105.48C896.673 103.553 896.05 100.38 896.05 95.96C896.05 91.88 896.843 88.8767 898.43 86.95C900.017 84.91 902.397 83.89 905.57 83.89ZM1012.35 169.06C1004.42 169.06 997.563 167.757 991.783 165.15C986.116 162.543 981.469 159.143 977.843 154.95C974.216 150.643 971.496 145.883 969.683 140.67C967.983 135.457 967.133 130.243 967.133 125.03C967.133 116.53 969.059 108.993 972.913 102.42C976.766 95.8467 982.093 90.69 988.893 86.95C995.693 83.0967 1003.51 81.17 1012.35 81.17C1018.93 81.17 1024.59 82.2467 1029.35 84.4C1034.23 86.44 1038.19 89.16 1041.25 92.56C1044.43 95.8467 1046.75 99.4167 1048.22 103.27C1049.81 107.123 1050.6 110.807 1050.6 114.32C1050.6 120.553 1049.07 125.2 1046.01 128.26C1043.07 131.207 1039.27 132.68 1034.62 132.68H994.163C994.389 135.627 995.409 138.12 997.223 140.16C999.149 142.2 1001.53 143.787 1004.36 144.92C1007.2 146.053 1010.2 146.62 1013.37 146.62C1016.09 146.62 1018.47 146.507 1020.51 146.28C1022.55 145.94 1024.31 145.543 1025.78 145.09C1027.26 144.523 1028.62 144.013 1029.86 143.56C1031.11 142.993 1032.19 142.54 1033.09 142.2C1034.11 141.86 1035.08 141.633 1035.98 141.52C1037.68 141.407 1039.21 141.917 1040.57 143.05C1042.05 144.07 1043.35 145.657 1044.48 147.81C1045.28 149.057 1045.79 150.247 1046.01 151.38C1046.35 152.513 1046.52 153.647 1046.52 154.78C1046.52 157.5 1045.11 159.937 1042.27 162.09C1039.55 164.243 1035.64 165.943 1030.54 167.19C1025.56 168.437 1019.49 169.06 1012.35 169.06ZM994.163 118.74H1021.02C1022.84 118.74 1024.14 118.457 1024.93 117.89C1025.84 117.21 1026.29 115.963 1026.29 114.15C1026.29 112.11 1025.67 110.353 1024.42 108.88C1023.18 107.293 1021.48 106.103 1019.32 105.31C1017.28 104.403 1014.9 103.95 1012.18 103.95C1008.67 103.95 1005.55 104.63 1002.83 105.99C1000.11 107.35 997.959 109.163 996.373 111.43C994.899 113.697 994.163 116.133 994.163 118.74Z" fill="white"/>
<rect x="442" y="43" width="28" height="28" rx="11" fill="#4EACFF"/>
<path d="M20.9998 147.5C19.0001 209 67.7657 241.5 132.5 241.5C221 241.5 398 242.333 492.5 241.5C522.5 241.235 590.5 234.5 590.5 155" stroke="white" stroke-width="25"/>
</svg>
