<svg width="51" height="52" viewBox="0 0 51 52" fill="none" xmlns="http://www.w3.org/2000/svg">
<path d="M0 5.85914V45.6525L30.0182 52V0L0 5.85914ZM15.1233 35.0104C5.58064 34.3898 6.56347 17.0434 15.3461 16.9056C24.7547 17.5327 23.8317 34.872 15.1233 35.0104ZM15.2609 20.3019C10.2335 20.654 10.4586 31.5151 15.1833 31.6023C20.189 31.277 19.895 20.3863 15.2609 20.3019ZM35.133 27.2197C35.5861 27.5556 36.1322 27.2197 36.1322 27.2197C35.588 27.5556 51 17.2318 51 17.2318V35.9264C51 37.9614 49.7082 38.815 48.2557 38.815H31.9142L31.9152 24.9913L35.133 27.2197ZM31.916 11.025V21.1965L35.4407 23.4346C35.5337 23.4621 35.7351 23.464 35.8281 23.4346L50.9979 13.1206C50.9979 11.9 49.8688 11.025 49.2316 11.025H31.916Z" fill="white"/>
</svg>
