<svg width="70" height="279" viewBox="0 0 70 279" fill="none" xmlns="http://www.w3.org/2000/svg">
<path d="M0 0C38.6599 0 70 31.3401 70 70C70 108.66 38.6599 140 0 140C-38.6599 140 -70 108.66 -70 70C-70 31.3401 -38.6599 0 0 0Z" fill="#4EACFF"/>
<path d="M0 69.293C38.6599 69.293 70 100.633 70 139.293C70 177.953 38.6599 209.293 0 209.293C-38.6599 209.293 -70 177.953 -70 139.293C-70 100.633 -38.6599 69.293 0 69.293Z" fill="#1B7FD7"/>
<path d="M0 138.586C38.6599 138.586 70 169.926 70 208.586C70 247.246 38.6599 278.586 0 278.586C-38.6599 278.586 -70 247.246 -70 208.586C-70 169.926 -38.6599 138.586 0 138.586Z" fill="#232C65"/>
</svg>
