<svg width="70" height="279" viewBox="0 0 70 279" fill="none" xmlns="http://www.w3.org/2000/svg">
<path d="M70 0C108.66 0 140 31.3401 140 70C140 108.66 108.66 140 70 140C31.3401 140 0 108.66 0 70C0 31.3401 31.3401 0 70 0Z" fill="#4EACFF"/>
<path d="M70 69.293C108.66 69.293 140 100.633 140 139.293C140 177.953 108.66 209.293 70 209.293C31.3401 209.293 0 177.953 0 139.293C0 100.633 31.3401 69.293 70 69.293Z" fill="#1B7FD7"/>
<path d="M70 138.586C108.66 138.586 140 169.926 140 208.586C140 247.246 108.66 278.586 70 278.586C31.3401 278.586 0 247.246 0 208.586C0 169.926 31.3401 138.586 70 138.586Z" fill="#232C65"/>
</svg>
