<svg width="200" height="200" viewBox="0 0 200 200" fill="none" xmlns="http://www.w3.org/2000/svg">
<path d="M167.676 149.141C163.992 140.414 158.645 132.486 151.934 125.801C145.243 119.096 137.317 113.75 128.594 110.059C128.516 110.02 128.438 110 128.36 109.961C140.528 101.172 148.438 86.8555 148.438 70.7031C148.438 43.9453 126.758 22.2656 100 22.2656C73.2427 22.2656 51.563 43.9453 51.563 70.7031C51.563 86.8555 59.4731 101.172 71.6411 109.98C71.563 110.02 71.4849 110.039 71.4067 110.078C62.6567 113.77 54.8052 119.063 48.0669 125.82C41.362 132.511 36.0162 140.437 32.3247 149.16C28.6982 157.7 26.7423 166.856 26.563 176.133C26.5578 176.341 26.5943 176.549 26.6705 176.743C26.7467 176.937 26.861 177.114 27.0066 177.263C27.1522 177.412 27.3262 177.531 27.5184 177.612C27.7105 177.693 27.917 177.734 28.1255 177.734H39.8442C40.7036 177.734 41.3872 177.051 41.4067 176.211C41.7974 161.133 47.852 147.012 58.5552 136.309C69.6294 125.234 84.3364 119.141 100 119.141C115.665 119.141 130.372 125.234 141.446 136.309C152.149 147.012 158.204 161.133 158.594 176.211C158.614 177.07 159.297 177.734 160.157 177.734H171.875C172.084 177.734 172.29 177.693 172.483 177.612C172.675 177.531 172.849 177.412 172.994 177.263C173.14 177.114 173.254 176.937 173.33 176.743C173.407 176.549 173.443 176.341 173.438 176.133C173.243 166.797 171.309 157.715 167.676 149.141ZM100 104.297C91.0356 104.297 82.5981 100.801 76.2505 94.4531C69.9028 88.1055 66.4067 79.668 66.4067 70.7031C66.4067 61.7383 69.9028 53.3008 76.2505 46.9531C82.5981 40.6055 91.0356 37.1094 100 37.1094C108.965 37.1094 117.403 40.6055 123.75 46.9531C130.098 53.3008 133.594 61.7383 133.594 70.7031C133.594 79.668 130.098 88.1055 123.75 94.4531C117.403 100.801 108.965 104.297 100 104.297Z" fill="white"/>
</svg>
